<?xml version="1.0" encoding="UTF-8"?>
<svg id="Layer_2" data-name="Layer 2" xmlns="http://www.w3.org/2000/svg" xmlns:xlink="http://www.w3.org/1999/xlink" viewBox="0 0 495.16 291.27">
  <defs>
    <style>
      @import url('https://fonts.googleapis.com/css2?family=DM+Sans:ital,opsz,wght@0,9..40,100..900;1,9..40,100..900&amp;display=swap');
            .cls-1 {
        clip-path: url(#clippath-21);
      }

      .cls-2 {
        letter-spacing: 0em;
      }

      .cls-3 {
        clip-path: url(#clippath-6);
      }

      .cls-4 {
        clip-path: url(#clippath-7);
      }

      .cls-5 {
        clip-path: url(#clippath-17);
      }

      .cls-6 {
        letter-spacing: -.02em;
      }

      .cls-7 {
        clip-path: url(#clippath-15);
      }

      .cls-8 {
        letter-spacing: 0em;
      }

      .cls-9 {
        clip-path: url(#clippath-18);
      }

      .cls-10 {
        clip-path: url(#clippath-4);
      }

      .cls-11 {
        clip-path: url(#clippath-22);
      }

      .cls-12 {
        clip-path: url(#clippath-23);
      }

      .cls-13 {
        stroke: #0076ba;
        stroke-width: .32px;
      }

      .cls-13, .cls-14, .cls-15 {
        fill: none;
      }

      .cls-16 {
        letter-spacing: 0em;
      }

      .cls-17 {
        letter-spacing: 0em;
      }

      .cls-18 {
        letter-spacing: 0em;
      }

      .cls-19 {
        letter-spacing: 0em;
      }

      .cls-20 {
        clip-path: url(#clippath-9);
      }

      .cls-21 {
        clip-path: url(#clippath-10);
      }

      .cls-22 {
        letter-spacing: -.01em;
      }

      .cls-23 {
        letter-spacing: -.01em;
      }

      .cls-24 {
        letter-spacing: 0em;
      }

      .cls-25 {
        letter-spacing: 0em;
      }

      .cls-26 {
        clip-path: url(#clippath-25);
      }

      .cls-27 {
        letter-spacing: 0em;
      }

      .cls-28 {
        letter-spacing: 0em;
      }

      .cls-29 {
        letter-spacing: 0em;
      }

      .cls-30 {
        clip-path: url(#clippath-11);
      }

      .cls-31 {
        letter-spacing: -.01em;
      }

      .cls-32 {
        font-size: 14.14px;
      }

      .cls-32, .cls-33 {
        font-family: DMSans-Regular, 'DM Sans';
      }

      .cls-34 {
        fill: #b7ffe7;
        opacity: .66;
      }

      .cls-35 {
        clip-path: url(#clippath-1);
      }

      .cls-33 {
        fill: #009664;
        font-size: 18px;
      }

      .cls-36 {
        letter-spacing: -.02em;
      }

      .cls-37 {
        fill: #fff;
        opacity: .74;
      }

      .cls-38 {
        letter-spacing: 0em;
      }

      .cls-39 {
        letter-spacing: 0em;
      }

      .cls-40 {
        clip-path: url(#clippath-5);
      }

      .cls-41 {
        clip-path: url(#clippath-20);
      }

      .cls-42 {
        clip-path: url(#clippath-8);
      }

      .cls-43 {
        letter-spacing: -.01em;
      }

      .cls-44 {
        clip-path: url(#clippath-3);
      }

      .cls-45 {
        clip-path: url(#clippath-12);
      }

      .cls-46 {
        clip-path: url(#clippath-14);
      }

      .cls-47 {
        letter-spacing: 0em;
      }

      .cls-48 {
        letter-spacing: 0em;
      }

      .cls-49 {
        letter-spacing: 0em;
      }

      .cls-15 {
        stroke: #009664;
        stroke-width: .45px;
      }

      .cls-50 {
        letter-spacing: 0em;
      }

      .cls-51 {
        clip-path: url(#clippath-19);
      }

      .cls-52 {
        letter-spacing: 0em;
      }

      .cls-53 {
        letter-spacing: 0em;
      }

      .cls-54 {
        letter-spacing: 0em;
      }

      .cls-55 {
        letter-spacing: 0em;
      }

      .cls-56 {
        letter-spacing: 0em;
      }

      .cls-57 {
        letter-spacing: -.04em;
      }

      .cls-58 {
        letter-spacing: 0em;
      }

      .cls-59 {
        letter-spacing: 0em;
      }

      .cls-60 {
        clip-path: url(#clippath-16);
      }

      .cls-61 {
        clip-path: url(#clippath-2);
      }

      .cls-62 {
        letter-spacing: 0em;
      }

      .cls-63 {
        letter-spacing: 0em;
      }

      .cls-64 {
        clip-path: url(#clippath-13);
      }

      .cls-65 {
        clip-path: url(#clippath-24);
      }

      .cls-66 {
        clip-path: url(#clippath);
      }

      .cls-67 {
        letter-spacing: -.04em;
      }

      .cls-68 {
        letter-spacing: 0em;
      }

      .cls-69 {
        letter-spacing: -.01em;
      }
    </style>
    <clipPath id="clippath">
      <rect class="cls-14" x="337.96" width="157.19" height="291.27"/>
    </clipPath>
    <clipPath id="clippath-1">
      <rect class="cls-14" x="339.41" y="1.45" width="154.3" height="288.37"/>
    </clipPath>
    <clipPath id="clippath-2">
      <rect class="cls-14" x="352.34" y="49.12" width="131.48" height="49.36"/>
    </clipPath>
    <clipPath id="clippath-3">
      <rect class="cls-14" x="353.95" y="50.73" width="128.26" height="46.15"/>
    </clipPath>
    <clipPath id="clippath-4">
      <rect class="cls-14" x="352.34" y="107.07" width="131.48" height="49.36"/>
    </clipPath>
    <clipPath id="clippath-5">
      <rect class="cls-14" x="353.95" y="108.68" width="128.26" height="46.15"/>
    </clipPath>
    <clipPath id="clippath-6">
      <rect class="cls-14" x="352.34" y="165.72" width="131.48" height="67.36"/>
    </clipPath>
    <clipPath id="clippath-7">
      <rect class="cls-14" x="353.95" y="167.33" width="128.26" height="64.15"/>
    </clipPath>
    <clipPath id="clippath-8">
      <rect class="cls-14" x="168.98" width="157.19" height="291.27"/>
    </clipPath>
    <clipPath id="clippath-9">
      <rect class="cls-14" x="170.43" y="1.45" width="154.3" height="288.37"/>
    </clipPath>
    <clipPath id="clippath-10">
      <rect class="cls-14" x="181.84" y="49.12" width="131.48" height="49.36"/>
    </clipPath>
    <clipPath id="clippath-11">
      <rect class="cls-14" x="183.45" y="50.73" width="128.26" height="46.15"/>
    </clipPath>
    <clipPath id="clippath-12">
      <rect class="cls-14" x="183.3" y="107.07" width="131.48" height="49.36"/>
    </clipPath>
    <clipPath id="clippath-13">
      <rect class="cls-14" x="184.9" y="108.68" width="128.26" height="46.15"/>
    </clipPath>
    <clipPath id="clippath-14">
      <rect class="cls-14" x="183.3" y="165.72" width="131.48" height="85.37"/>
    </clipPath>
    <clipPath id="clippath-15">
      <rect class="cls-14" x="184.9" y="167.33" width="128.26" height="82.15"/>
    </clipPath>
    <clipPath id="clippath-16">
      <rect class="cls-14" width="157.19" height="291.27"/>
    </clipPath>
    <clipPath id="clippath-17">
      <rect class="cls-14" x="1.45" y="1.45" width="154.3" height="288.37"/>
    </clipPath>
    <clipPath id="clippath-18">
      <rect class="cls-14" x="14.25" y="49.12" width="131.48" height="49.36"/>
    </clipPath>
    <clipPath id="clippath-19">
      <rect class="cls-14" x="15.86" y="50.73" width="128.26" height="46.15"/>
    </clipPath>
    <clipPath id="clippath-20">
      <rect class="cls-14" x="14.25" y="107.07" width="131.48" height="175.38"/>
    </clipPath>
    <clipPath id="clippath-21">
      <rect class="cls-14" x="15.86" y="108.68" width="128.26" height="172.16"/>
    </clipPath>
    <clipPath id="clippath-22">
      <rect class="cls-14" x="27.22" y="158.88" width="105.46" height="49.36"/>
    </clipPath>
    <clipPath id="clippath-23">
      <rect class="cls-14" x="28.83" y="160.48" width="102.25" height="46.15"/>
    </clipPath>
    <clipPath id="clippath-24">
      <rect class="cls-14" x="27.26" y="209.75" width="105.46" height="67.36"/>
    </clipPath>
    <clipPath id="clippath-25">
      <rect class="cls-14" x="28.87" y="211.36" width="102.25" height="64.15"/>
    </clipPath>
  </defs>
  <g id="Layer_1-2" data-name="Layer 1">
    <g class="cls-66">
      <path class="cls-34" d="M351.32,1.45h130.48c3.49,0,5.59,0,6.99.58,2.02.73,3.6,2.32,4.34,4.34.58,1.4.58,3.49.58,6.99v264.56c0,3.49,0,5.59-.58,6.99-.73,2.02-2.32,3.6-4.34,4.34-1.4.58-3.49.58-6.99.58h-130.48c-3.49,0-5.59,0-6.99-.58-2.02-.73-3.6-2.32-4.34-4.34-.58-1.4-.58-3.49-.58-6.99V13.36c0-3.49,0-5.59.58-6.99.73-2.02,2.32-3.6,4.34-4.34,1.4-.58,3.49-.58,6.99-.58Z"/>
      <path class="cls-15" d="M351.32,1.45h130.48c3.49,0,5.59,0,6.99.58,2.02.73,3.6,2.32,4.34,4.34.58,1.4.58,3.49.58,6.99v264.56c0,3.49,0,5.59-.58,6.99-.73,2.02-2.32,3.6-4.34,4.34-1.4.58-3.49.58-6.99.58h-130.48c-3.49,0-5.59,0-6.99-.58-2.02-.73-3.6-2.32-4.34-4.34-.58-1.4-.58-3.49-.58-6.99V13.36c0-3.49,0-5.59.58-6.99.73-2.02,2.32-3.6,4.34-4.34,1.4-.58,3.49-.58,6.99-.58Z"/>
    </g>
    <g class="cls-35">
      <text class="cls-33" transform="translate(379.64 31.48)"><tspan x="0" y="0">Frontline</tspan></text>
    </g>
    <g class="cls-61">
      <rect class="cls-37" x="353.79" y="50.57" width="128.58" height="46.47"/>
      <rect class="cls-13" x="353.79" y="50.57" width="128.58" height="46.47"/>
    </g>
    <g class="cls-44">
      <text class="cls-32" transform="translate(379.98 70.2)"><tspan x="0" y="0">Operational</tspan></text>
      <text class="cls-32" transform="translate(383.42 88.2)"><tspan x="0" y="0">algorithms</tspan></text>
    </g>
    <g class="cls-10">
      <rect class="cls-37" x="353.79" y="108.52" width="128.58" height="46.47"/>
      <rect class="cls-13" x="353.79" y="108.52" width="128.58" height="46.47"/>
    </g>
    <g class="cls-40">
      <text class="cls-32" transform="translate(383.76 128.15)"><tspan x="0" y="0">Conclusive</tspan></text>
      <text class="cls-32" transform="translate(372.44 146.15)"><tspan x="0" y="0">business rules</tspan></text>
    </g>
    <g class="cls-3">
      <rect class="cls-37" x="353.79" y="167.17" width="128.58" height="64.47"/>
      <rect class="cls-13" x="353.79" y="167.17" width="128.58" height="64.47"/>
    </g>
    <g class="cls-4">
      <text class="cls-32" transform="translate(372.8 186.8)"><tspan x="0" y="0">Independently</tspan></text>
      <text class="cls-32" transform="translate(385.07 204.8)"><tspan x="0" y="0">conclusive</tspan></text>
      <text class="cls-32" transform="translate(375.7 222.8)"><tspan x="0" y="0">generative AI</tspan></text>
    </g>
    <g class="cls-42">
      <path class="cls-34" d="M182.34,1.45h130.48c3.49,0,5.59,0,6.99.58,2.02.73,3.6,2.32,4.34,4.34.58,1.4.58,3.49.58,6.99v264.56c0,3.49,0,5.59-.58,6.99-.73,2.02-2.32,3.6-4.34,4.34-1.4.58-3.49.58-6.99.58h-130.48c-3.49,0-5.59,0-6.99-.58-2.02-.73-3.6-2.32-4.34-4.34-.58-1.4-.58-3.49-.58-6.99V13.36c0-3.49,0-5.59.58-6.99.73-2.02,2.32-3.6,4.34-4.34,1.4-.58,3.49-.58,6.99-.58Z"/>
      <path class="cls-15" d="M182.34,1.45h130.48c3.49,0,5.59,0,6.99.58,2.02.73,3.6,2.32,4.34,4.34.58,1.4.58,3.49.58,6.99v264.56c0,3.49,0,5.59-.58,6.99-.73,2.02-2.32,3.6-4.34,4.34-1.4.58-3.49.58-6.99.58h-130.48c-3.49,0-5.59,0-6.99-.58-2.02-.73-3.6-2.32-4.34-4.34-.58-1.4-.58-3.49-.58-6.99V13.36c0-3.49,0-5.59.58-6.99.73-2.02,2.32-3.6,4.34-4.34,1.4-.58,3.49-.58,6.99-.58Z"/>
    </g>
    <g class="cls-20">
      <text class="cls-33" transform="translate(209.75 31.48)"><tspan x="0" y="0">Research</tspan></text>
    </g>
    <g class="cls-21">
      <rect class="cls-37" x="183.29" y="50.57" width="128.58" height="46.47"/>
      <rect class="cls-13" x="183.29" y="50.57" width="128.58" height="46.47"/>
    </g>
    <g class="cls-30">
      <text class="cls-32" transform="translate(209.48 70.2)"><tspan x="0" y="0">Operational</tspan></text>
      <text class="cls-32" transform="translate(218.97 88.2)"><tspan x="0" y="0">research</tspan></text>
    </g>
    <g class="cls-45">
      <rect class="cls-37" x="184.74" y="108.52" width="128.58" height="46.47"/>
      <rect class="cls-13" x="184.74" y="108.52" width="128.58" height="46.47"/>
    </g>
    <g class="cls-64">
      <text class="cls-32" transform="translate(194.16 128.15)"><tspan x="0" y="0">Policy/regulatory</tspan></text>
      <text class="cls-32" transform="translate(220.43 146.15)"><tspan x="0" y="0">research</tspan></text>
    </g>
    <g class="cls-46">
      <rect class="cls-37" x="184.74" y="167.17" width="128.58" height="82.47"/>
      <rect class="cls-13" x="184.74" y="167.17" width="128.58" height="82.47"/>
    </g>
    <g class="cls-7">
      <text class="cls-32" transform="translate(189.03 186.8)"><tspan x="0" y="0">Automated public</tspan></text>
      <text class="cls-32" transform="translate(192.58 204.8)"><tspan x="0" y="0">consultation and</tspan></text>
      <text class="cls-32" transform="translate(192.34 222.8)"><tspan x="0" y="0">other qualitative</tspan></text>
      <text class="cls-32" transform="translate(220.87 240.8)"><tspan x="0" y="0">analysis</tspan></text>
    </g>
    <g class="cls-60">
      <path class="cls-34" d="M13.36,1.45h130.48c3.49,0,5.59,0,6.99.58,2.02.73,3.6,2.32,4.34,4.34.58,1.4.58,3.49.58,6.99v264.56c0,3.49,0,5.59-.58,6.99-.73,2.02-2.32,3.6-4.34,4.34-1.4.58-3.49.58-6.99.58H13.36c-3.49,0-5.59,0-6.99-.58-2.02-.73-3.6-2.32-4.34-4.34-.58-1.4-.58-3.49-.58-6.99V13.36c0-3.49,0-5.59.58-6.99.73-2.02,2.32-3.6,4.34-4.34,1.4-.58,3.49-.58,6.99-.58Z"/>
      <path class="cls-15" d="M13.36,1.45h130.48c3.49,0,5.59,0,6.99.58,2.02.73,3.6,2.32,4.34,4.34.58,1.4.58,3.49.58,6.99v264.56c0,3.49,0,5.59-.58,6.99-.73,2.02-2.32,3.6-4.34,4.34-1.4.58-3.49.58-6.99.58H13.35c-3.49,0-5.59,0-6.99-.58-2.02-.73-3.6-2.32-4.34-4.34-.58-1.4-.58-3.49-.58-6.99V13.36c0-3.49,0-5.59.58-6.99.73-2.02,2.32-3.6,4.34-4.34,1.4-.58,3.49-.58,6.99-.58Z"/>
    </g>
    <g class="cls-5">
      <text class="cls-33" transform="translate(17.38 31.48)"><tspan x="0" y="0">Administration</tspan></text>
    </g>
    <g class="cls-9">
      <rect class="cls-37" x="15.7" y="50.57" width="128.58" height="46.47"/>
      <rect class="cls-13" x="15.7" y="50.57" width="128.58" height="46.47"/>
    </g>
    <g class="cls-51">
      <text class="cls-32" transform="translate(31.57 70.2)"><tspan x="0" y="0">Non-conclusive</tspan></text>
      <text class="cls-32" transform="translate(34.35 88.2)"><tspan x="0" y="0">business rules</tspan></text>
    </g>
    <g class="cls-41">
      <rect class="cls-37" x="15.7" y="108.52" width="128.58" height="172.48"/>
      <rect class="cls-13" x="15.7" y="108.52" width="128.58" height="172.48"/>
    </g>
    <g class="cls-1">
      <text class="cls-32" transform="translate(51.24 128.15)"><tspan x="0" y="0">Assistive</tspan></text>
      <text class="cls-32" transform="translate(37.61 146.15)"><tspan x="0" y="0">generative AI</tspan></text>
    </g>
    <g class="cls-11">
      <rect class="cls-37" x="28.67" y="160.32" width="102.57" height="46.47"/>
      <rect class="cls-13" x="28.67" y="160.32" width="102.57" height="46.47"/>
    </g>
    <g class="cls-12">
      <text class="cls-32" transform="translate(49.89 179.95)"><tspan x="0" y="0">Research</tspan></text>
      <text class="cls-32" transform="translate(52.7 197.95)"><tspan x="0" y="0">collation</tspan></text>
    </g>
    <g class="cls-65">
      <rect class="cls-37" x="28.71" y="211.2" width="102.57" height="64.47"/>
      <rect class="cls-13" x="28.71" y="211.2" width="102.57" height="64.47"/>
    </g>
    <g class="cls-26">
      <text class="cls-32" transform="translate(34.05 230.83)"><tspan x="0" y="0">Orchestration</tspan></text>
      <text class="cls-32" transform="translate(44.28 248.83)"><tspan x="0" y="0">of frontline</tspan></text>
      <text class="cls-32" transform="translate(45.33 266.83)"><tspan x="0" y="0">algorithms</tspan></text>
    </g>
  </g>
</svg>