<?xml version="1.0" encoding="UTF-8"?>
<svg id="Layer_2" data-name="Layer 2" xmlns="http://www.w3.org/2000/svg" xmlns:xlink="http://www.w3.org/1999/xlink" viewBox="0 0 492.89 588.8">
  <defs>
    <style>
      @import url('https://fonts.googleapis.com/css2?family=DM+Sans:ital,opsz,wght@0,9..40,100..900;1,9..40,100..900&amp;display=swap');
      .cls-1, .cls-2, .cls-3 {
        fill: #fff;
      }

      .cls-1, .cls-3 {
        font-size: 14.72px;
      }

      .cls-1, .cls-4 {
        font-family: DMSans-Regular, 'DM Sans';
      }

      .cls-5 {
        letter-spacing: .02em;
      }

      .cls-6 {
        letter-spacing: .02em;
      }

      .cls-7 {
        letter-spacing: .01em;
      }

      .cls-8 {
        letter-spacing: .01em;
      }

      .cls-9 {
        letter-spacing: .02em;
      }

      .cls-10 {
        letter-spacing: .02em;
      }

      .cls-11 {
        letter-spacing: 0em;
      }

      .cls-12 {
        opacity: .5;
      }

      .cls-12, .cls-13 {
        fill: #2d8092;
      }

      .cls-14 {
        clip-path: url(#clippath-21);
      }

      .cls-15 {
        clip-path: url(#clippath-6);
      }

      .cls-16 {
        clip-path: url(#clippath-7);
      }

      .cls-17 {
        clip-path: url(#clippath-17);
      }

      .cls-18 {
        letter-spacing: .03em;
      }

      .cls-19 {
        letter-spacing: .02em;
      }

      .cls-20 {
        letter-spacing: .02em;
      }

      .cls-21 {
        letter-spacing: .02em;
      }

      .cls-22 {
        clip-path: url(#clippath-15);
      }

      .cls-23 {
        clip-path: url(#clippath-18);
      }

      .cls-24 {
        clip-path: url(#clippath-4);
      }

      .cls-25 {
        letter-spacing: .02em;
      }

      .cls-26 {
        clip-path: url(#clippath-22);
      }

      .cls-27 {
        letter-spacing: .01em;
      }

      .cls-28 {
        clip-path: url(#clippath-23);
      }

      .cls-29 {
        letter-spacing: .02em;
      }

      .cls-30 {
        letter-spacing: .02em;
      }

      .cls-31 {
        letter-spacing: .01em;
      }

      .cls-32 {
        letter-spacing: .03em;
      }

      .cls-33 {
        letter-spacing: .02em;
      }

      .cls-34 {
        clip-path: url(#clippath-9);
      }

      .cls-35 {
        stroke: #fff;
      }

      .cls-35, .cls-36, .cls-37 {
        fill: none;
      }

      .cls-35, .cls-37 {
        stroke-width: .52px;
      }

      .cls-38 {
        clip-path: url(#clippath-10);
      }

      .cls-39 {
        letter-spacing: .01em;
      }

      .cls-40 {
        letter-spacing: .02em;
      }

      .cls-41 {
        opacity: .73;
      }

      .cls-41, .cls-42 {
        fill: #49b8d0;
      }

      .cls-43 {
        letter-spacing: .02em;
      }

      .cls-44 {
        letter-spacing: .02em;
      }

      .cls-2 {
        font-size: 17.67px;
      }

      .cls-2, .cls-3 {
        font-family: DMSans-Medium, 'DM Sans';
        font-weight: 500;
      }

      .cls-45 {
        letter-spacing: .02em;
      }

      .cls-46 {
        letter-spacing: .02em;
      }

      .cls-47 {
        letter-spacing: .03em;
      }

      .cls-48 {
        clip-path: url(#clippath-11);
      }

      .cls-49 {
        letter-spacing: .03em;
      }

      .cls-50 {
        letter-spacing: .02em;
      }

      .cls-51 {
        letter-spacing: .04em;
      }

      .cls-52 {
        letter-spacing: 0em;
      }

      .cls-53 {
        fill: #3392a6;
      }

      .cls-54 {
        letter-spacing: .01em;
      }

      .cls-55 {
        letter-spacing: .02em;
      }

      .cls-56 {
        letter-spacing: .02em;
      }

      .cls-57 {
        letter-spacing: .03em;
      }

      .cls-58 {
        clip-path: url(#clippath-1);
      }

      .cls-59 {
        letter-spacing: .02em;
      }

      .cls-60 {
        fill: #e9e9f4;
        opacity: .63;
      }

      .cls-61 {
        letter-spacing: .02em;
      }

      .cls-62 {
        letter-spacing: .01em;
      }

      .cls-63 {
        letter-spacing: .02em;
      }

      .cls-64 {
        letter-spacing: .02em;
      }

      .cls-65 {
        clip-path: url(#clippath-5);
      }

      .cls-66 {
        letter-spacing: .01em;
      }

      .cls-67 {
        clip-path: url(#clippath-20);
      }

      .cls-68 {
        clip-path: url(#clippath-8);
      }

      .cls-69 {
        letter-spacing: .03em;
      }

      .cls-70 {
        letter-spacing: .02em;
      }

      .cls-71 {
        clip-path: url(#clippath-3);
      }

      .cls-72 {
        letter-spacing: .01em;
      }

      .cls-37 {
        stroke: #212686;
      }

      .cls-73 {
        clip-path: url(#clippath-12);
      }

      .cls-74 {
        letter-spacing: 0em;
      }

      .cls-75 {
        fill: #e3e3f1;
      }

      .cls-76 {
        clip-path: url(#clippath-14);
      }

      .cls-77 {
        clip-path: url(#clippath-19);
      }

      .cls-78 {
        letter-spacing: 0em;
      }

      .cls-79 {
        letter-spacing: .02em;
      }

      .cls-80 {
        letter-spacing: .02em;
      }

      .cls-81 {
        letter-spacing: .02em;
      }

      .cls-82 {
        letter-spacing: .03em;
      }

      .cls-83 {
        letter-spacing: .02em;
      }

      .cls-84 {
        letter-spacing: .02em;
      }

      .cls-42 {
        opacity: .74;
      }

      .cls-85 {
        clip-path: url(#clippath-16);
      }

      .cls-86 {
        letter-spacing: .02em;
      }

      .cls-87 {
        clip-path: url(#clippath-2);
      }

      .cls-88 {
        letter-spacing: .01em;
      }

      .cls-89 {
        font-family: DMSans-SemiBold, 'DM Sans';
        font-size: 20.61px;
        font-weight: 600;
      }

      .cls-89, .cls-4 {
        fill: #212686;
      }

      .cls-90 {
        clip-path: url(#clippath-13);
      }

      .cls-4 {
        font-size: 16.2px;
      }

      .cls-91 {
        letter-spacing: .02em;
      }

      .cls-92 {
        clip-path: url(#clippath-24);
      }

      .cls-93 {
        clip-path: url(#clippath);
      }

      .cls-94 {
        letter-spacing: .02em;
      }

      .cls-95 {
        letter-spacing: 0em;
      }

      .cls-96 {
        letter-spacing: .02em;
      }

      .cls-97 {
        letter-spacing: .02em;
      }

      .cls-98 {
        letter-spacing: .02em;
      }

      .cls-99 {
        letter-spacing: .02em;
      }
    </style>
    <clipPath id="clippath">
      <rect class="cls-36" width="492.89" height="588.8"/>
    </clipPath>
    <clipPath id="clippath-1">
      <rect class="cls-36" x="1.66" y="1.66" width="489.58" height="585.49"/>
    </clipPath>
    <clipPath id="clippath-2">
      <rect class="cls-36" x="11.78" y="59.86" width="452.69" height="516.91"/>
    </clipPath>
    <clipPath id="clippath-3">
      <rect class="cls-36" x="13.44" y="61.51" width="449.38" height="513.6"/>
    </clipPath>
    <clipPath id="clippath-4">
      <rect class="cls-36" x="30.7" y="111.47" width="419.91" height="358.93"/>
    </clipPath>
    <clipPath id="clippath-5">
      <rect class="cls-36" x="32.35" y="113.12" width="416.6" height="355.62"/>
    </clipPath>
    <clipPath id="clippath-6">
      <rect class="cls-36" x="45.93" y="216.81" width="389.46" height="181.95"/>
    </clipPath>
    <clipPath id="clippath-7">
      <rect class="cls-36" x="47.58" y="218.47" width="386.14" height="178.63"/>
    </clipPath>
    <clipPath id="clippath-8">
      <rect class="cls-36" x="82.34" y="159.88" width="353.04" height="116.8"/>
    </clipPath>
    <clipPath id="clippath-9">
      <rect class="cls-36" x="84" y="161.54" width="349.73" height="113.49"/>
    </clipPath>
    <clipPath id="clippath-10">
      <rect class="cls-36" x="89.21" y="218.66" width="127.64" height="46.97"/>
    </clipPath>
    <clipPath id="clippath-11">
      <rect class="cls-36" x="208.76" y="359.55" width="269.71" height="205.15"/>
    </clipPath>
    <clipPath id="clippath-12">
      <rect class="cls-36" x="210.41" y="361.21" width="266.4" height="201.84"/>
    </clipPath>
    <clipPath id="clippath-13">
      <rect class="cls-36" x="219.02" y="410.21" width="223.65" height="50.43"/>
    </clipPath>
    <clipPath id="clippath-14">
      <rect class="cls-36" x="220.67" y="411.87" width="220.34" height="47.12"/>
    </clipPath>
    <clipPath id="clippath-15">
      <rect class="cls-36" x="217.8" y="475.99" width="242.22" height="44.17"/>
    </clipPath>
    <clipPath id="clippath-16">
      <rect class="cls-36" x="219.46" y="477.64" width="233.01" height="40.86"/>
    </clipPath>
    <clipPath id="clippath-17">
      <rect class="cls-36" x="235.25" y="188.29" width="190.07" height="242.09"/>
    </clipPath>
    <clipPath id="clippath-18">
      <rect class="cls-36" x="236.9" y="189.95" width="186.76" height="238.78"/>
    </clipPath>
    <clipPath id="clippath-19">
      <rect class="cls-36" x="257.9" y="232.28" width="139.32" height="190.23"/>
    </clipPath>
    <clipPath id="clippath-20">
      <rect class="cls-36" x="259.55" y="233.93" width="136.01" height="186.92"/>
    </clipPath>
    <clipPath id="clippath-21">
      <rect class="cls-36" x="178.19" y="11.67" width="286.27" height="44.75"/>
    </clipPath>
    <clipPath id="clippath-22">
      <rect class="cls-36" x="179.85" y="13.32" width="282.95" height="41.44"/>
    </clipPath>
    <clipPath id="clippath-23">
      <rect class="cls-36" x="244.97" y="340.49" width="170.62" height="50.43"/>
    </clipPath>
    <clipPath id="clippath-24">
      <rect class="cls-36" x="246.63" y="342.15" width="167.3" height="47.12"/>
    </clipPath>
  </defs>
  <g id="Layer_1-2" data-name="Layer 1">
    <g class="cls-93">
      <path class="cls-75" d="M35.42,1.66h422.05c9.91,0,15.85,0,19.82,1.65,5.71,2.08,10.21,6.58,12.29,12.29,1.65,3.96,1.65,9.91,1.65,19.82v517.96c0,9.91,0,15.85-1.65,19.82-2.08,5.71-6.58,10.21-12.29,12.29-3.96,1.65-9.91,1.65-19.82,1.65H35.42c-9.91,0-15.85,0-19.82-1.65-5.71-2.08-10.21-6.58-12.29-12.29-1.65-3.96-1.65-9.91-1.65-19.82V35.42c0-9.91,0-15.85,1.65-19.82,2.08-5.71,6.58-10.21,12.29-12.29,3.96-1.65,9.91-1.65,19.82-1.65Z"/>
      <path class="cls-37" d="M35.42,1.66h422.05c9.91,0,15.85,0,19.82,1.66,5.71,2.08,10.21,6.58,12.29,12.29,1.65,3.96,1.65,9.91,1.65,19.82v517.96c0,9.91,0,15.85-1.66,19.82-2.08,5.71-6.58,10.21-12.29,12.29-3.96,1.65-9.91,1.65-19.82,1.65H35.42c-9.91,0-15.85,0-19.82-1.66-5.71-2.08-10.21-6.58-12.29-12.29-1.65-3.96-1.65-9.91-1.65-19.82V35.42c0-9.91,0-15.85,1.66-19.82,2.08-5.71,6.58-10.21,12.29-12.29,3.96-1.65,9.91-1.65,19.82-1.65Z"/>
    </g>
    <g class="cls-58">
      <text class="cls-89" transform="translate(20.41 39.62)"><tspan x="0" y="0">Algorithms</tspan></text>
    </g>
    <g class="cls-87">
      <path class="cls-13" d="M35.06,61.51h406.12c6.35,0,10.15,0,12.69,1.06,3.66,1.33,6.54,4.21,7.87,7.87,1.06,2.54,1.06,6.35,1.06,12.69v470.35c0,6.35,0,10.15-1.06,12.69-1.33,3.66-4.21,6.54-7.87,7.87-2.54,1.06-6.35,1.06-12.69,1.06H35.06c-6.35,0-10.15,0-12.69-1.06-3.66-1.33-6.54-4.21-7.87-7.87-1.06-2.54-1.06-6.35-1.06-12.69V83.14c0-6.35,0-10.15,1.06-12.69,1.33-3.66,4.21-6.54,7.87-7.87,2.54-1.06,6.35-1.06,12.69-1.06Z"/>
      <path class="cls-35" d="M35.06,61.51h406.12c6.35,0,10.15,0,12.69,1.06,3.66,1.33,6.54,4.21,7.87,7.87,1.06,2.54,1.06,6.35,1.06,12.69v470.35c0,6.35,0,10.15-1.06,12.69-1.33,3.66-4.21,6.54-7.87,7.87-2.54,1.06-6.35,1.06-12.69,1.06H35.06c-6.35,0-10.15,0-12.69-1.06-3.66-1.33-6.54-4.21-7.87-7.87-1.06-2.54-1.06-6.35-1.06-12.69V83.14c0-6.35,0-10.15,1.06-12.69,1.33-3.66,4.21-6.54,7.87-7.87,2.54-1.06,6.35-1.06,12.69-1.06Z"/>
    </g>
    <g class="cls-71">
      <text class="cls-2" transform="translate(28.35 95.73)"><tspan x="0" y="0">Artificial intelligence</tspan></text>
    </g>
    <g class="cls-24">
      <path class="cls-53" d="M54.65,113.12h372c6.54,0,10.47,0,13.09,1.09,3.77,1.37,6.75,4.35,8.12,8.12,1.09,2.62,1.09,6.54,1.09,13.09v311.02c0,6.54,0,10.47-1.09,13.09-1.37,3.77-4.35,6.75-8.12,8.12-2.62,1.09-6.54,1.09-13.09,1.09H54.65c-6.54,0-10.47,0-13.09-1.09-3.77-1.37-6.75-4.35-8.12-8.12-1.09-2.62-1.09-6.54-1.09-13.09V135.42c0-6.54,0-10.47,1.09-13.09,1.37-3.77,4.35-6.75,8.12-8.12,2.62-1.09,6.54-1.09,13.09-1.09Z"/>
      <path class="cls-35" d="M54.65,113.12h372c6.54,0,10.47,0,13.09,1.09,3.77,1.37,6.75,4.35,8.12,8.12,1.09,2.62,1.09,6.54,1.09,13.09v311.02c0,6.54,0,10.47-1.09,13.09-1.37,3.77-4.35,6.75-8.12,8.12-2.62,1.09-6.54,1.09-13.09,1.09H54.65c-6.54,0-10.47,0-13.09-1.09-3.77-1.37-6.75-4.35-8.12-8.12-1.09-2.62-1.09-6.54-1.09-13.09V135.42c0-6.54,0-10.47,1.09-13.09,1.37-3.77,4.35-6.75,8.12-8.12,2.62-1.09,6.54-1.09,13.09-1.09Z"/>
    </g>
    <g class="cls-65">
      <text class="cls-2" transform="translate(47.26 147.34)"><tspan x="0" y="0">Machine learning (ML)</tspan></text>
    </g>
    <g class="cls-15">
      <path class="cls-42" d="M69.21,218.47h342.89c6.35,0,10.15,0,12.69,1.06,3.66,1.33,6.54,4.21,7.87,7.87,1.06,2.54,1.06,6.35,1.06,12.69v135.38c0,6.35,0,10.15-1.06,12.69-1.33,3.66-4.21,6.54-7.87,7.87-2.54,1.06-6.35,1.06-12.69,1.06H69.21c-6.35,0-10.15,0-12.69-1.06-3.66-1.33-6.54-4.21-7.87-7.87-1.06-2.54-1.06-6.35-1.06-12.69v-135.38c0-6.35,0-10.15,1.06-12.69,1.33-3.66,4.21-6.54,7.87-7.87,2.54-1.06,6.35-1.06,12.69-1.06Z"/>
      <path class="cls-35" d="M69.21,218.47h342.89c6.35,0,10.15,0,12.69,1.06,3.66,1.33,6.54,4.21,7.87,7.87,1.06,2.54,1.06,6.35,1.06,12.69v135.38c0,6.35,0,10.15-1.06,12.69-1.33,3.66-4.21,6.54-7.87,7.87-2.54,1.06-6.35,1.06-12.69,1.06H69.21c-6.35,0-10.15,0-12.69-1.06-3.66-1.33-6.54-4.21-7.87-7.87-1.06-2.54-1.06-6.35-1.06-12.69v-135.38c0-6.35,0-10.15,1.06-12.69,1.33-3.66,4.21-6.54,7.87-7.87,2.54-1.06,6.35-1.06,12.69-1.06Z"/>
    </g>
    <g class="cls-16">
      <text class="cls-1" transform="translate(58.06 363.8)"><tspan x="0" y="0">Supervised</tspan></text>
      <text class="cls-1" transform="translate(59.23 381.47)"><tspan x="0" y="0">learning</tspan></text>
    </g>
    <g class="cls-68">
      <path class="cls-42" d="M105.63,161.54h306.47c6.35,0,10.15,0,12.69,1.06,3.66,1.33,6.54,4.21,7.87,7.87,1.06,2.54,1.06,6.35,1.06,12.69v70.24c0,6.35,0,10.15-1.06,12.69-1.33,3.66-4.21,6.54-7.87,7.87-2.54,1.06-6.35,1.06-12.69,1.06H105.63c-6.35,0-10.15,0-12.69-1.06-3.66-1.33-6.54-4.21-7.87-7.87-1.06-2.54-1.06-6.35-1.06-12.69v-70.24c0-6.35,0-10.15,1.06-12.69,1.33-3.66,4.21-6.54,7.87-7.87,2.54-1.06,6.35-1.06,12.69-1.06Z"/>
      <path class="cls-35" d="M105.63,161.54h306.47c6.35,0,10.15,0,12.69,1.06,3.66,1.33,6.54,4.21,7.87,7.87,1.06,2.54,1.06,6.35,1.06,12.69v70.24c0,6.35,0,10.15-1.06,12.69-1.33,3.66-4.21,6.54-7.87,7.87-2.54,1.06-6.35,1.06-12.69,1.06H105.63c-6.35,0-10.15,0-12.69-1.06-3.66-1.33-6.54-4.21-7.87-7.87-1.06-2.54-1.06-6.35-1.06-12.69v-70.24c0-6.35,0-10.15,1.06-12.69,1.33-3.66,4.21-6.54,7.87-7.87,2.54-1.06,6.35-1.06,12.69-1.06Z"/>
    </g>
    <g class="cls-34">
      <text class="cls-1" transform="translate(96.82 189.07)"><tspan x="0" y="0">Unsupervised</tspan></text>
      <text class="cls-1" transform="translate(96.4 206.74)"><tspan x="0" y="0">learning</tspan></text>
    </g>
    <g class="cls-38">
      <text class="cls-1" transform="translate(95.1 238.83)"><tspan x="0" y="0">Semi-supervised</tspan></text>
      <text class="cls-1" transform="translate(95.1 256.5)"><tspan x="0" y="0">learning</tspan></text>
    </g>
    <g class="cls-48">
      <path class="cls-60" d="M225.15,361.21h236.93c4.32,0,6.92,0,8.65.72,2.49.91,4.46,2.87,5.36,5.36.72,1.73.72,4.32.72,8.65v172.37c0,4.32,0,6.92-.72,8.65-.91,2.49-2.87,4.46-5.36,5.36-1.73.72-4.32.72-8.65.72h-236.93c-4.32,0-6.92,0-8.65-.72-2.49-.91-4.46-2.87-5.36-5.36-.72-1.73-.72-4.32-.72-8.65v-172.37c0-4.32,0-6.92.72-8.65.91-2.49,2.87-4.46,5.36-5.36,1.73-.72,4.32-.72,8.65-.72Z"/>
      <path class="cls-37" d="M225.15,361.21h236.93c4.32,0,6.92,0,8.65.72,2.49.91,4.46,2.87,5.36,5.36.72,1.73.72,4.32.72,8.65v172.37c0,4.32,0,6.92-.72,8.65-.91,2.49-2.87,4.46-5.36,5.37-1.73.72-4.32.72-8.65.72h-236.93c-4.32,0-6.92,0-8.65-.72-2.49-.91-4.46-2.87-5.36-5.37-.72-1.73-.72-4.32-.72-8.65v-172.37c0-4.32,0-6.92.72-8.65.91-2.49,2.87-4.46,5.36-5.36,1.73-.72,4.32-.72,8.65-.72Z"/>
    </g>
    <g class="cls-73">
      <text class="cls-4" transform="translate(220.95 546.95)"><tspan x="0" y="0">Goal-driven optimisation</tspan></text>
    </g>
    <g class="cls-90">
      <path class="cls-42" d="M236.22,411.87h189.24c4.56,0,7.3,0,9.12.76,2.63.96,4.7,3.03,5.66,5.66.76,1.82.76,4.56.76,9.12v16.03c0,4.56,0,7.3-.76,9.12-.96,2.63-3.03,4.7-5.66,5.66-1.82.76-4.56.76-9.12.76h-189.24c-4.56,0-7.3,0-9.12-.76-2.63-.96-4.7-3.03-5.66-5.66-.76-1.82-.76-4.56-.76-9.12v-16.03c0-4.56,0-7.3.76-9.12.96-2.63,3.03-4.7,5.66-5.66,1.82-.76,4.56-.76,9.12-.76Z"/>
      <path class="cls-35" d="M236.22,411.87h189.24c4.56,0,7.3,0,9.12.76,2.63.96,4.7,3.03,5.66,5.66.76,1.82.76,4.56.76,9.12v16.03c0,4.56,0,7.3-.76,9.12-.96,2.63-3.03,4.7-5.66,5.66-1.82.76-4.56.76-9.12.76h-189.24c-4.56,0-7.3,0-9.12-.76-2.63-.96-4.7-3.03-5.66-5.66-.76-1.82-.76-4.56-.76-9.12v-16.03c0-4.56,0-7.3.76-9.12.96-2.63,3.03-4.7,5.66-5.66,1.82-.76,4.56-.76,9.12-.76Z"/>
    </g>
    <g class="cls-76">
      <text class="cls-1" transform="translate(228.3 448.24)"><tspan x="0" y="0">Reinforcement learning</tspan></text>
    </g>
    <g class="cls-22">
      <path class="cls-13" d="M235.7,477.64h206.43c4.75,0,7.59,0,9.49.76,2.74.96,4.89,3.03,5.89,5.66.79,1.82.79,4.56.79,9.12v9.77c0,4.56,0,7.3-.79,9.12-1,2.63-3.15,4.7-5.89,5.66-1.9.76-4.75.76-9.49.76h-206.43c-4.75,0-7.59,0-9.49-.76-2.74-.96-4.89-3.03-5.89-5.66-.79-1.82-.79-4.56-.79-9.12v-9.77c0-4.56,0-7.3.79-9.12,1-2.63,3.15-4.7,5.89-5.66,1.9-.76,4.75-.76,9.49-.76Z"/>
      <path class="cls-35" d="M235.7,477.64h206.43c4.75,0,7.59,0,9.49.76,2.74.96,4.89,3.03,5.89,5.66.79,1.82.79,4.56.79,9.12v9.77c0,4.56,0,7.3-.79,9.12-1,2.63-3.15,4.7-5.89,5.66-1.9.76-4.75.76-9.49.76h-206.43c-4.75,0-7.59,0-9.49-.76-2.74-.96-4.89-3.03-5.89-5.66-.79-1.82-.79-4.56-.79-9.12v-9.77c0-4.56,0-7.3.79-9.12,1-2.63,3.15-4.7,5.89-5.66,1.9-.76,4.75-.76,9.49-.76Z"/>
    </g>
    <g class="cls-85">
      <text class="cls-3" transform="translate(229 505.18)"><tspan x="0" y="0">Evolutionary computation (EC)</tspan></text>
    </g>
    <g class="cls-17">
      <path class="cls-12" d="M258.53,189.95h143.5c6.35,0,10.15,0,12.69,1.06,3.66,1.33,6.54,4.21,7.87,7.87,1.06,2.54,1.06,6.35,1.06,12.69v195.53c0,6.35,0,10.15-1.06,12.69-1.33,3.66-4.21,6.54-7.87,7.87-2.54,1.06-6.35,1.06-12.69,1.06h-143.5c-6.35,0-10.15,0-12.69-1.06-3.66-1.33-6.54-4.21-7.87-7.87-1.06-2.54-1.06-6.35-1.06-12.69v-195.53c0-6.35,0-10.15,1.06-12.69,1.33-3.66,4.21-6.54,7.87-7.87,2.54-1.06,6.35-1.06,12.69-1.06Z"/>
      <path class="cls-35" d="M258.53,189.95h143.5c6.35,0,10.15,0,12.69,1.06,3.66,1.33,6.54,4.21,7.87,7.87,1.06,2.54,1.06,6.35,1.06,12.69v195.53c0,6.35,0,10.15-1.06,12.69-1.33,3.66-4.21,6.54-7.87,7.87-2.54,1.06-6.35,1.06-12.69,1.06h-143.5c-6.35,0-10.15,0-12.69-1.06-3.66-1.33-6.54-4.21-7.87-7.87-1.06-2.54-1.06-6.35-1.06-12.69v-195.53c0-6.35,0-10.15,1.06-12.69,1.33-3.66,4.21-6.54,7.87-7.87,2.54-1.06,6.35-1.06,12.69-1.06Z"/>
    </g>
    <g class="cls-23">
      <text class="cls-1" transform="translate(249.06 216.01)"><tspan x="0" y="0">Deep learning (DL)</tspan></text>
    </g>
    <g class="cls-77">
      <path class="cls-41" d="M281.18,233.93h92.76c6.35,0,10.15,0,12.69,1.06,3.66,1.33,6.54,4.21,7.87,7.87,1.06,2.54,1.06,6.35,1.06,12.69v143.66c0,6.35,0,10.15-1.06,12.69-1.33,3.66-4.21,6.54-7.87,7.87-2.54,1.06-6.35,1.06-12.69,1.06h-92.76c-6.35,0-10.15,0-12.69-1.06-3.66-1.33-6.54-4.21-7.87-7.87-1.06-2.54-1.06-6.35-1.06-12.69v-143.66c0-6.35,0-10.15,1.06-12.69,1.33-3.66,4.21-6.54,7.87-7.87,2.54-1.06,6.35-1.06,12.69-1.06Z"/>
      <path class="cls-35" d="M281.18,233.93h92.76c6.35,0,10.15,0,12.69,1.06,3.66,1.33,6.54,4.21,7.87,7.87,1.06,2.54,1.06,6.35,1.06,12.69v143.66c0,6.35,0,10.15-1.06,12.69-1.33,3.66-4.21,6.54-7.87,7.87-2.54,1.06-6.35,1.06-12.69,1.06h-92.76c-6.35,0-10.15,0-12.69-1.06-3.66-1.33-6.54-4.21-7.87-7.87-1.06-2.54-1.06-6.35-1.06-12.69v-143.66c0-6.35,0-10.15,1.06-12.69,1.33-3.66,4.21-6.54,7.87-7.87,2.54-1.06,6.35-1.06,12.69-1.06Z"/>
    </g>
    <g class="cls-67">
      <text class="cls-1" transform="translate(272.47 261.47)"><tspan x="0" y="0">Generative AI</tspan></text>
    </g>
    <g class="cls-14">
      <path class="cls-60" d="M201.48,13.32h239.7c6.32,0,10.12,0,12.65,1.03,3.69,1.34,6.6,4.25,7.94,7.94.98,2.25,1.03,6.38,1.03,11.74s-.06,9.49-1.03,11.74c-1.34,3.69-4.25,6.6-7.94,7.94-2.53,1.03-6.32,1.03-12.65,1.03h-239.7c-6.32,0-10.12,0-12.65-1.03-3.69-1.34-6.6-4.25-7.94-7.94-.98-2.25-1.03-6.38-1.03-11.74s.06-9.49,1.03-11.74c1.34-3.69,4.25-6.6,7.94-7.94,2.53-1.03,6.32-1.03,12.65-1.03Z"/>
      <path class="cls-37" d="M201.48,13.32h239.7c6.32,0,10.12,0,12.65,1.04,3.69,1.34,6.6,4.25,7.94,7.94.98,2.25,1.03,6.38,1.03,11.74s-.06,9.49-1.03,11.74c-1.34,3.69-4.25,6.6-7.94,7.94-2.53,1.03-6.32,1.03-12.65,1.03h-239.7c-6.32,0-10.12,0-12.65-1.04-3.69-1.34-6.6-4.25-7.94-7.94-.98-2.25-1.03-6.38-1.03-11.74,0-5.36.06-9.49,1.03-11.74,1.34-3.69,4.25-6.6,7.94-7.94,2.53-1.03,6.32-1.03,12.65-1.03Z"/>
    </g>
    <g class="cls-26">
      <text class="cls-4" transform="translate(191.62 39.05)"><tspan x="0" y="0">Hand crafted algorithms</tspan></text>
    </g>
    <g class="cls-28">
      <path class="cls-42" d="M262.18,342.15h136.21c4.56,0,7.3,0,9.12.76,2.63.96,4.7,3.03,5.66,5.66.76,1.82.76,4.56.76,9.12v16.03c0,4.56,0,7.3-.76,9.12-.96,2.63-3.03,4.7-5.66,5.66-1.82.76-4.56.76-9.12.76h-136.21c-4.56,0-7.3,0-9.12-.76-2.63-.96-4.7-3.03-5.66-5.66-.76-1.82-.76-4.56-.76-9.12v-16.03c0-4.56,0-7.3.76-9.12.96-2.63,3.03-4.7,5.66-5.66,1.82-.76,4.56-.76,9.12-.76Z"/>
      <path class="cls-35" d="M262.18,342.15h136.21c4.56,0,7.3,0,9.12.76,2.63.96,4.7,3.03,5.66,5.66.76,1.82.76,4.56.76,9.12v16.03c0,4.56,0,7.3-.76,9.12-.96,2.63-3.03,4.7-5.66,5.66-1.82.76-4.56.76-9.12.76h-136.21c-4.56,0-7.3,0-9.12-.76-2.63-.96-4.7-3.03-5.66-5.66-.76-1.82-.76-4.56-.76-9.12v-16.03c0-4.56,0-7.3.76-9.12.96-2.63,3.03-4.7,5.66-5.66,1.82-.76,4.56-.76,9.12-.76Z"/>
    </g>
    <g class="cls-92">
      <text class="cls-1" transform="translate(254.3 361.21)"><tspan class="cls-43" x="0" y="0">S</tspan><tspan class="cls-64" x="8.89" y="0">e</tspan><tspan class="cls-56" x="17.54" y="0">l</tspan><tspan class="cls-78" x="21.12" y="0">f</tspan><tspan class="cls-99" x="26.18" y="0">-</tspan><tspan class="cls-64" x="34.46" y="0">s</tspan><tspan class="cls-80" x="42.13" y="0">u</tspan><tspan class="cls-98" x="50.86" y="0">p</tspan><tspan class="cls-56" x="60.43" y="0">e</tspan><tspan class="cls-47" x="69.09" y="0">r</tspan><tspan class="cls-56" x="74.96" y="0">vi</tspan><tspan class="cls-30" x="86.85" y="0">s</tspan><tspan class="cls-79" x="94.55" y="0">e</tspan><tspan class="cls-56" x="103.23" y="0">d</tspan><tspan class="cls-94" x="112.76" y="0"> </tspan><tspan class="cls-64" x="0" y="17.67">l</tspan><tspan class="cls-56" x="3.56" y="17.67">e</tspan><tspan class="cls-64" x="12.22" y="17.67">ar</tspan><tspan class="cls-80" x="26.24" y="17.67">n</tspan><tspan class="cls-94" x="34.99" y="17.67">i</tspan><tspan class="cls-56" x="38.8" y="17.67">n</tspan><tspan class="cls-95" x="47.55" y="17.67">g</tspan></text>
    </g>
  </g>
</svg>