<?xml version="1.0" encoding="UTF-8"?>
<svg id="Layer_2" data-name="Layer 2" xmlns="http://www.w3.org/2000/svg" xmlns:xlink="http://www.w3.org/1999/xlink" viewBox="0 0 728.91 352.49">
  <defs>
    <style>
      @import url('https://fonts.googleapis.com/css2?family=DM+Sans:ital,opsz,wght@0,9..40,100..900;1,9..40,100..900&amp;display=swap');
      .cls-1 {
        letter-spacing: 0em;
      }

      .cls-2 {
        clip-path: url(#clippath-76);
      }

      .cls-3 {
        clip-path: url(#clippath-51);
      }

      .cls-4 {
        letter-spacing: -.02em;
      }

      .cls-5 {
        clip-path: url(#clippath-34);
      }

      .cls-6, .cls-7 {
        fill: #970e53;
      }

      .cls-8 {
        letter-spacing: 0em;
      }

      .cls-9 {
        letter-spacing: 0em;
      }

      .cls-10 {
        clip-path: url(#clippath-38);
      }

      .cls-11 {
        clip-path: url(#clippath-21);
      }

      .cls-7, .cls-12, .cls-13, .cls-14, .cls-15 {
        font-family: DMSans-Regular, 'DM Sans';
      }

      .cls-7, .cls-15 {
        font-size: 10.4px;
      }

      .cls-12, .cls-16, .cls-13, .cls-15 {
        fill: #fff;
      }

      .cls-12, .cls-14 {
        font-size: 14.04px;
      }

      .cls-17 {
        clip-path: url(#clippath-6);
      }

      .cls-18 {
        clip-path: url(#clippath-7);
      }

      .cls-19 {
        clip-path: url(#clippath-17);
      }

      .cls-20 {
        letter-spacing: 0em;
      }

      .cls-21 {
        clip-path: url(#clippath-80);
      }

      .cls-22 {
        clip-path: url(#clippath-31);
      }

      .cls-23 {
        letter-spacing: -.02em;
      }

      .cls-24 {
        letter-spacing: 0em;
      }

      .cls-25 {
        clip-path: url(#clippath-79);
      }

      .cls-26 {
        clip-path: url(#clippath-75);
      }

      .cls-27 {
        letter-spacing: 0em;
      }

      .cls-28 {
        letter-spacing: .02em;
      }

      .cls-29 {
        clip-path: url(#clippath-15);
      }

      .cls-30 {
        clip-path: url(#clippath-33);
      }

      .cls-31 {
        clip-path: url(#clippath-61);
      }

      .cls-32 {
        letter-spacing: -.01em;
      }

      .cls-33 {
        stroke-dasharray: 7.8 7.8;
      }

      .cls-33, .cls-34, .cls-35, .cls-36, .cls-37, .cls-38, .cls-39, .cls-40 {
        fill: none;
      }

      .cls-33, .cls-36, .cls-37, .cls-39 {
        stroke: #fff;
      }

      .cls-33, .cls-37, .cls-38, .cls-39 {
        stroke-width: 1.3px;
      }

      .cls-41 {
        clip-path: url(#clippath-18);
      }

      .cls-42 {
        clip-path: url(#clippath-47);
      }

      .cls-43 {
        fill: #b894b1;
      }

      .cls-44 {
        clip-path: url(#clippath-4);
      }

      .cls-45 {
        clip-path: url(#clippath-71);
      }

      .cls-46 {
        fill: #53585f;
      }

      .cls-47 {
        letter-spacing: 0em;
      }

      .cls-48 {
        clip-path: url(#clippath-22);
      }

      .cls-49 {
        letter-spacing: 0em;
      }

      .cls-50 {
        clip-path: url(#clippath-23);
      }

      .cls-51 {
        letter-spacing: 0em;
      }

      .cls-52 {
        letter-spacing: -.01em;
      }

      .cls-53 {
        letter-spacing: 0em;
      }

      .cls-54 {
        letter-spacing: 0em;
      }

      .cls-55 {
        letter-spacing: -.01em;
      }

      .cls-56 {
        letter-spacing: 0em;
      }

      .cls-57 {
        clip-path: url(#clippath-82);
      }

      .cls-58 {
        letter-spacing: 0em;
      }

      .cls-59 {
        clip-path: url(#clippath-54);
      }

      .cls-60 {
        clip-path: url(#clippath-66);
      }

      .cls-61 {
        letter-spacing: 0em;
      }

      .cls-62 {
        letter-spacing: -.05em;
      }

      .cls-63 {
        clip-path: url(#clippath-9);
      }

      .cls-64 {
        clip-path: url(#clippath-70);
      }

      .cls-65 {
        clip-path: url(#clippath-10);
      }

      .cls-66 {
        clip-path: url(#clippath-42);
      }

      .cls-67 {
        letter-spacing: 0em;
      }

      .cls-68, .cls-14, .cls-69 {
        fill: #5d4558;
      }

      .cls-70 {
        clip-path: url(#clippath-59);
      }

      .cls-71 {
        clip-path: url(#clippath-43);
      }

      .cls-72 {
        fill: #5e5e5e;
      }

      .cls-73 {
        clip-path: url(#clippath-64);
      }

      .cls-74 {
        clip-path: url(#clippath-25);
      }

      .cls-13 {
        font-size: 10.92px;
      }

      .cls-75 {
        clip-path: url(#clippath-27);
      }

      .cls-76 {
        letter-spacing: -.04em;
      }

      .cls-77 {
        letter-spacing: -.03em;
      }

      .cls-78 {
        clip-path: url(#clippath-60);
      }

      .cls-79 {
        letter-spacing: 0em;
      }

      .cls-80 {
        clip-path: url(#clippath-11);
      }

      .cls-81 {
        letter-spacing: 0em;
      }

      .cls-82 {
        clip-path: url(#clippath-57);
      }

      .cls-83 {
        clip-path: url(#clippath-88);
      }

      .cls-84 {
        letter-spacing: 0em;
      }

      .cls-85 {
        letter-spacing: 0em;
      }

      .cls-35 {
        stroke-width: 3.9px;
      }

      .cls-35, .cls-38, .cls-40 {
        stroke: #5d4558;
      }

      .cls-86 {
        clip-path: url(#clippath-85);
      }

      .cls-87 {
        letter-spacing: -.03em;
      }

      .cls-88 {
        clip-path: url(#clippath-36);
      }

      .cls-36 {
        stroke-width: 2.6px;
      }

      .cls-89 {
        letter-spacing: -.02em;
      }

      .cls-90 {
        clip-path: url(#clippath-35);
      }

      .cls-91 {
        clip-path: url(#clippath-48);
      }

      .cls-92 {
        fill: #ddc6e1;
      }

      .cls-93 {
        letter-spacing: 0em;
      }

      .cls-94 {
        clip-path: url(#clippath-28);
      }

      .cls-95 {
        letter-spacing: 0em;
      }

      .cls-96 {
        letter-spacing: -.03em;
      }

      .cls-97 {
        clip-path: url(#clippath-1);
      }

      .cls-98 {
        clip-path: url(#clippath-56);
      }

      .cls-99 {
        letter-spacing: -.01em;
      }

      .cls-100 {
        letter-spacing: 0em;
      }

      .cls-101 {
        letter-spacing: 0em;
      }

      .cls-69 {
        font-family: DMSans-Italic, 'DM Sans';
        font-size: 13px;
        font-style: italic;
      }

      .cls-102 {
        fill: #929292;
      }

      .cls-103 {
        letter-spacing: 0em;
      }

      .cls-104 {
        letter-spacing: 0em;
      }

      .cls-105 {
        clip-path: url(#clippath-45);
      }

      .cls-106 {
        clip-path: url(#clippath-89);
      }

      .cls-107 {
        clip-path: url(#clippath-46);
      }

      .cls-108 {
        clip-path: url(#clippath-40);
      }

      .cls-109 {
        clip-path: url(#clippath-5);
      }

      .cls-110 {
        clip-path: url(#clippath-20);
      }

      .cls-111 {
        clip-path: url(#clippath-8);
      }

      .cls-112 {
        letter-spacing: 0em;
      }

      .cls-113 {
        clip-path: url(#clippath-52);
      }

      .cls-114 {
        clip-path: url(#clippath-41);
      }

      .cls-115 {
        clip-path: url(#clippath-67);
      }

      .cls-116 {
        letter-spacing: 0em;
      }

      .cls-117 {
        letter-spacing: 0em;
      }

      .cls-118 {
        clip-path: url(#clippath-74);
      }

      .cls-119 {
        clip-path: url(#clippath-3);
      }

      .cls-120 {
        letter-spacing: 0em;
      }

      .cls-121 {
        clip-path: url(#clippath-26);
      }

      .cls-122 {
        fill: #ff95ca;
      }

      .cls-123 {
        clip-path: url(#clippath-12);
      }

      .cls-124 {
        letter-spacing: 0em;
      }

      .cls-125 {
        letter-spacing: 0em;
      }

      .cls-126 {
        clip-path: url(#clippath-50);
      }

      .cls-127 {
        letter-spacing: 0em;
      }

      .cls-128 {
        letter-spacing: 0em;
      }

      .cls-129 {
        clip-path: url(#clippath-14);
      }

      .cls-39 {
        stroke-dasharray: 2.6 2.6;
      }

      .cls-130 {
        letter-spacing: 0em;
      }

      .cls-131 {
        letter-spacing: 0em;
      }

      .cls-132 {
        clip-path: url(#clippath-30);
      }

      .cls-133 {
        clip-path: url(#clippath-77);
      }

      .cls-134 {
        clip-path: url(#clippath-19);
      }

      .cls-135 {
        letter-spacing: 0em;
      }

      .cls-136 {
        letter-spacing: 0em;
      }

      .cls-137 {
        fill: #ff42a1;
      }

      .cls-138 {
        clip-path: url(#clippath-78);
      }

      .cls-139 {
        letter-spacing: 0em;
      }

      .cls-140 {
        clip-path: url(#clippath-72);
      }

      .cls-141 {
        clip-path: url(#clippath-84);
      }

      .cls-142 {
        clip-path: url(#clippath-32);
      }

      .cls-143 {
        clip-path: url(#clippath-55);
      }

      .cls-144 {
        fill: #846980;
      }

      .cls-145 {
        fill: #d41876;
      }

      .cls-146 {
        letter-spacing: 0em;
      }

      .cls-147 {
        letter-spacing: 0em;
      }

      .cls-148 {
        letter-spacing: -.02em;
      }

      .cls-149 {
        letter-spacing: 0em;
      }

      .cls-150 {
        letter-spacing: -.04em;
      }

      .cls-151 {
        clip-path: url(#clippath-73);
      }

      .cls-152 {
        clip-path: url(#clippath-53);
      }

      .cls-153 {
        letter-spacing: 0em;
      }

      .cls-154 {
        clip-path: url(#clippath-39);
      }

      .cls-155 {
        clip-path: url(#clippath-81);
      }

      .cls-156 {
        letter-spacing: 0em;
      }

      .cls-157 {
        letter-spacing: 0em;
      }

      .cls-158 {
        letter-spacing: 0em;
      }

      .cls-159 {
        clip-path: url(#clippath-16);
      }

      .cls-40 {
        stroke-width: 3.9px;
      }

      .cls-160 {
        letter-spacing: 0em;
      }

      .cls-161 {
        clip-path: url(#clippath-2);
      }

      .cls-162 {
        letter-spacing: -.04em;
      }

      .cls-163 {
        clip-path: url(#clippath-29);
      }

      .cls-164 {
        letter-spacing: 0em;
      }

      .cls-165 {
        letter-spacing: 0em;
      }

      .cls-166 {
        letter-spacing: 0em;
      }

      .cls-167 {
        letter-spacing: 0em;
      }

      .cls-168 {
        clip-path: url(#clippath-49);
      }

      .cls-169 {
        clip-path: url(#clippath-37);
      }

      .cls-170 {
        clip-path: url(#clippath-58);
      }

      .cls-171 {
        clip-path: url(#clippath-13);
      }

      .cls-172 {
        letter-spacing: .01em;
      }

      .cls-173 {
        letter-spacing: 0em;
      }

      .cls-174 {
        clip-path: url(#clippath-86);
      }

      .cls-175 {
        letter-spacing: 0em;
      }

      .cls-176 {
        clip-path: url(#clippath-63);
      }

      .cls-177 {
        clip-path: url(#clippath-24);
      }

      .cls-178 {
        letter-spacing: -.03em;
      }

      .cls-179 {
        clip-path: url(#clippath);
      }

      .cls-180 {
        letter-spacing: 0em;
      }

      .cls-181 {
        clip-path: url(#clippath-87);
      }

      .cls-182 {
        clip-path: url(#clippath-68);
      }

      .cls-183 {
        clip-path: url(#clippath-83);
      }

      .cls-184 {
        clip-path: url(#clippath-65);
      }

      .cls-185 {
        clip-path: url(#clippath-44);
      }

      .cls-186 {
        clip-path: url(#clippath-62);
      }

      .cls-187 {
        clip-path: url(#clippath-69);
      }

      .cls-188 {
        letter-spacing: 0em;
      }

      .cls-189 {
        letter-spacing: 0em;
      }

      .cls-190 {
        letter-spacing: -.01em;
      }
    </style>
    <clipPath id="clippath">
      <rect class="cls-34" x="249.29" y="65.13" width="221.23" height="52.52"/>
    </clipPath>
    <clipPath id="clippath-1">
      <rect class="cls-34" x="163.09" y="182.14" width="393.64" height="52.52"/>
    </clipPath>
    <clipPath id="clippath-2">
      <rect class="cls-34" x="119.98" y="240.79" width="479.84" height="52.52"/>
    </clipPath>
    <clipPath id="clippath-3">
      <rect class="cls-34" x="206.19" y="123.76" width="307.43" height="52.52"/>
    </clipPath>
    <clipPath id="clippath-4">
      <rect class="cls-34" x="1.42" y=".65" width="81.44" height="31.72"/>
    </clipPath>
    <clipPath id="clippath-5">
      <rect class="cls-34" x="1.09" y=".91" width="82.15" height="31.2"/>
    </clipPath>
    <clipPath id="clippath-6">
      <rect class="cls-34" x="1.42" y="39.65" width="81.44" height="31.72"/>
    </clipPath>
    <clipPath id="clippath-7">
      <rect class="cls-34" x="1.15" y="39.91" width="82.03" height="31.2"/>
    </clipPath>
    <clipPath id="clippath-8">
      <rect class="cls-34" x="1.42" y="78.65" width="81.44" height="31.72"/>
    </clipPath>
    <clipPath id="clippath-9">
      <rect class="cls-34" x="1.15" y="78.91" width="82.03" height="31.2"/>
    </clipPath>
    <clipPath id="clippath-10">
      <rect class="cls-34" x="1.42" y="117.65" width="81.44" height="31.72"/>
    </clipPath>
    <clipPath id="clippath-11">
      <rect class="cls-34" y="117.91" width="84.28" height="31.2"/>
    </clipPath>
    <clipPath id="clippath-12">
      <rect class="cls-34" x="99.65" y="299.97" width="520.52" height="52.52"/>
    </clipPath>
    <clipPath id="clippath-13">
      <rect class="cls-34" x="96.81" y="300.23" width="526.2" height="52.19"/>
    </clipPath>
    <clipPath id="clippath-14">
      <rect class="cls-34" x="501.83" y="134.12" width="74.29" height="25.18"/>
    </clipPath>
    <clipPath id="clippath-15">
      <rect class="cls-34" x="555.63" y="184.05" width="81.02" height="42.08"/>
    </clipPath>
    <clipPath id="clippath-16">
      <rect class="cls-34" x="460.81" y="75.49" width="77.65" height="25.18"/>
    </clipPath>
    <clipPath id="clippath-17">
      <rect class="cls-34" x="583.89" y="251.16" width="99.33" height="25.18"/>
    </clipPath>
    <clipPath id="clippath-18">
      <rect class="cls-34" x="635.26" width="93.64" height="141.65"/>
    </clipPath>
    <clipPath id="clippath-19">
      <rect class="cls-34" x="636.17" y=".91" width="91.82" height="139.83"/>
    </clipPath>
    <clipPath id="clippath-20">
      <rect class="cls-34" x="648.68" y="68.42" width="66.82" height="27.82"/>
    </clipPath>
    <clipPath id="clippath-21">
      <rect class="cls-34" x="649.59" y="69.33" width="65" height="26"/>
    </clipPath>
    <clipPath id="clippath-22">
      <rect class="cls-34" x="648.68" y="34.94" width="66.82" height="27.82"/>
    </clipPath>
    <clipPath id="clippath-23">
      <rect class="cls-34" x="649.59" y="35.85" width="65" height="26"/>
    </clipPath>
    <clipPath id="clippath-24">
      <rect class="cls-34" x="648.68" y="101.89" width="66.82" height="27.82"/>
    </clipPath>
    <clipPath id="clippath-25">
      <rect class="cls-34" x="649.59" y="102.8" width="65" height="26"/>
    </clipPath>
    <clipPath id="clippath-26">
      <rect class="cls-34" x="344.05" y=".65" width="31.72" height="30.19"/>
    </clipPath>
    <clipPath id="clippath-27">
      <rect class="cls-34" x="301.12" y="32.38" width="121.79" height="25.18"/>
    </clipPath>
    <clipPath id="clippath-28">
      <rect class="cls-34" x="156.26" y="247.82" width="39.52" height="39.52"/>
    </clipPath>
    <clipPath id="clippath-29">
      <rect class="cls-34" x="155.6" y="248.08" width="40.84" height="39"/>
    </clipPath>
    <clipPath id="clippath-30">
      <rect class="cls-34" x="361.03" y="72.28" width="38.22" height="38.22"/>
    </clipPath>
    <clipPath id="clippath-31">
      <rect class="cls-34" x="360.65" y="73.19" width="38.98" height="36.4"/>
    </clipPath>
    <clipPath id="clippath-32">
      <rect class="cls-34" x="204.37" y="188.79" width="40.82" height="40.82"/>
    </clipPath>
    <clipPath id="clippath-33">
      <rect class="cls-34" x="205.06" y="189.7" width="39.44" height="39"/>
    </clipPath>
    <clipPath id="clippath-34">
      <rect class="cls-34" x="344.86" y="195.11" width="46.13" height="53.82"/>
    </clipPath>
    <clipPath id="clippath-35">
      <rect class="cls-34" x="345.77" y="196.02" width="44.31" height="52"/>
    </clipPath>
    <clipPath id="clippath-36">
      <rect class="cls-34" x="278.57" y="71.63" width="39.52" height="39.52"/>
    </clipPath>
    <clipPath id="clippath-37">
      <rect class="cls-34" x="278.83" y="71.89" width="39" height="39"/>
    </clipPath>
    <clipPath id="clippath-38">
      <rect class="cls-34" x="345.48" y="178.82" width="3.12" height="66.73" transform="translate(101.74 536.66) rotate(-84.35)"/>
    </clipPath>
    <clipPath id="clippath-39">
      <rect class="cls-34" x="313.68" y="207.35" width="66.71" height="9.67"/>
    </clipPath>
    <clipPath id="clippath-40">
      <rect class="cls-34" x="349.46" y="200.98" width="36.92" height="26.52"/>
    </clipPath>
    <clipPath id="clippath-41">
      <rect class="cls-34" x="349.72" y="201.24" width="36.4" height="26"/>
    </clipPath>
    <clipPath id="clippath-42">
      <rect class="cls-34" x="294.26" y="189.16" width="39.52" height="39.52"/>
    </clipPath>
    <clipPath id="clippath-43">
      <rect class="cls-34" x="293.59" y="189.42" width="40.86" height="39"/>
    </clipPath>
    <clipPath id="clippath-44">
      <rect class="cls-34" x="388.33" y="159.46" width="39.52" height="39.52"/>
    </clipPath>
    <clipPath id="clippath-45">
      <rect class="cls-34" x="387.68" y="159.72" width="40.81" height="39"/>
    </clipPath>
    <clipPath id="clippath-46">
      <rect class="cls-34" x="316.53" y="127.32" width="72.02" height="45.93"/>
    </clipPath>
    <clipPath id="clippath-47">
      <rect class="cls-34" x="317.44" y="128.23" width="70.2" height="44.11"/>
    </clipPath>
    <clipPath id="clippath-48">
      <rect class="cls-34" x="346.37" y="131.18" width="38.22" height="38.22"/>
    </clipPath>
    <clipPath id="clippath-49">
      <rect class="cls-34" x="346" y="132.09" width="38.96" height="36.4"/>
    </clipPath>
    <clipPath id="clippath-50">
      <rect class="cls-34" x="401.29" y="71.63" width="39.52" height="39.52"/>
    </clipPath>
    <clipPath id="clippath-51">
      <rect class="cls-34" x="399.54" y="71.89" width="43.02" height="39"/>
    </clipPath>
    <clipPath id="clippath-52">
      <rect class="cls-34" x="377.9" y="247.17" width="40.82" height="40.82"/>
    </clipPath>
    <clipPath id="clippath-53">
      <rect class="cls-34" x="377.5" y="248.08" width="41.61" height="39"/>
    </clipPath>
    <clipPath id="clippath-54">
      <rect class="cls-34" x="425.1" y="247.17" width="40.82" height="40.82"/>
    </clipPath>
    <clipPath id="clippath-55">
      <rect class="cls-34" x="425.77" y="248.08" width="39.48" height="39"/>
    </clipPath>
    <clipPath id="clippath-56">
      <rect class="cls-34" x="517.21" y="247.82" width="39.52" height="39.52"/>
    </clipPath>
    <clipPath id="clippath-57">
      <rect class="cls-34" x="515.46" y="248.08" width="43.02" height="39"/>
    </clipPath>
    <clipPath id="clippath-58">
      <rect class="cls-34" x="508.04" y="266.02" width="10.65" height="3.12"/>
    </clipPath>
    <clipPath id="clippath-59">
      <rect class="cls-34" x="469.04" y="247.82" width="39.52" height="39.52"/>
    </clipPath>
    <clipPath id="clippath-60">
      <rect class="cls-34" x="468.36" y="248.08" width="40.87" height="39"/>
    </clipPath>
    <clipPath id="clippath-61">
      <rect class="cls-34" x="239.65" y="266.02" width="10.65" height="3.12"/>
    </clipPath>
    <clipPath id="clippath-62">
      <rect class="cls-34" x="200.42" y="247.82" width="39.52" height="39.52"/>
    </clipPath>
    <clipPath id="clippath-63">
      <rect class="cls-34" x="199.78" y="248.08" width="40.81" height="39"/>
    </clipPath>
    <clipPath id="clippath-64">
      <rect class="cls-34" x="246.84" y="247.82" width="39.52" height="39.52"/>
    </clipPath>
    <clipPath id="clippath-65">
      <rect class="cls-34" x="246.18" y="248.08" width="40.84" height="39"/>
    </clipPath>
    <clipPath id="clippath-66">
      <rect class="cls-34" x="327.17" y="266.28" width="10.65" height="3.12"/>
    </clipPath>
    <clipPath id="clippath-67">
      <rect class="cls-34" x="290.33" y="247.82" width="39.52" height="39.52"/>
    </clipPath>
    <clipPath id="clippath-68">
      <rect class="cls-34" x="289.69" y="248.08" width="40.8" height="39"/>
    </clipPath>
    <clipPath id="clippath-69">
      <rect class="cls-34" x="334.62" y="249.12" width="36.92" height="36.92"/>
    </clipPath>
    <clipPath id="clippath-70">
      <rect class="cls-34" x="332.92" y="249.38" width="40.33" height="36.4"/>
    </clipPath>
    <clipPath id="clippath-71">
      <rect class="cls-34" x="436.01" y="101.35" width="96.56" height="148.34"/>
    </clipPath>
    <clipPath id="clippath-72">
      <rect class="cls-34" x="249.44" y="189.16" width="40.82" height="40.82"/>
    </clipPath>
    <clipPath id="clippath-73">
      <rect class="cls-34" x="250.09" y="190.07" width="39.53" height="39"/>
    </clipPath>
    <clipPath id="clippath-74">
      <rect class="cls-34" x="424.74" y="189.16" width="40.82" height="40.82"/>
    </clipPath>
    <clipPath id="clippath-75">
      <rect class="cls-34" x="424.32" y="190.07" width="41.67" height="39"/>
    </clipPath>
    <clipPath id="clippath-76">
      <rect class="cls-34" x="462.88" y="161.61" width="31.9" height="87.23"/>
    </clipPath>
    <clipPath id="clippath-77">
      <rect class="cls-34" x="429.38" y="130.79" width="39.52" height="39.52"/>
    </clipPath>
    <clipPath id="clippath-78">
      <rect class="cls-34" x="428.71" y="131.05" width="40.87" height="39"/>
    </clipPath>
    <clipPath id="clippath-79">
      <rect class="cls-34" x="318.83" y="70.98" width="40.82" height="40.82"/>
    </clipPath>
    <clipPath id="clippath-80">
      <rect class="cls-34" x="319.74" y="71.89" width="39" height="39"/>
    </clipPath>
    <clipPath id="clippath-81">
      <rect class="cls-34" x="287.78" y="110.28" width="17.09" height="83.32"/>
    </clipPath>
    <clipPath id="clippath-82">
      <rect class="cls-34" x="652.91" y="112.65" width="15.18" height="190.47" transform="translate(3.95 427.93) rotate(-36)"/>
    </clipPath>
    <clipPath id="clippath-83">
      <rect class="cls-34" x="598.38" y="126.37" width="124.24" height="163.02"/>
    </clipPath>
    <clipPath id="clippath-84">
      <rect class="cls-34" x="93.66" y="89.6" width="107.26" height="202.3"/>
    </clipPath>
    <clipPath id="clippath-85">
      <rect class="cls-34" x="96.81" y="37.11" width="107.79" height="54.47"/>
    </clipPath>
    <clipPath id="clippath-86">
      <rect class="cls-34" x="156.26" y="305.55" width="39.52" height="39.52"/>
    </clipPath>
    <clipPath id="clippath-87">
      <rect class="cls-34" x="155.6" y="305.81" width="40.84" height="39"/>
    </clipPath>
    <clipPath id="clippath-88">
      <rect class="cls-34" x="159.9" y="282.16" width="6.37" height="28.28"/>
    </clipPath>
    <clipPath id="clippath-89">
      <rect class="cls-34" x="544.2" y="58.44" width="89.76" height="70.07"/>
    </clipPath>
  </defs>
  <g id="Layer_1-2" data-name="Layer 1">
    <g class="cls-179">
      <polygon class="cls-92" points="287.42 65.39 249.55 117.39 470.26 117.39 431.51 65.39 287.42 65.39"/>
    </g>
    <g class="cls-97">
      <polygon class="cls-144" points="201.22 182.4 163.35 234.4 556.47 234.4 517.71 182.4 201.22 182.4"/>
    </g>
    <g class="cls-161">
      <polygon class="cls-68" points="158.11 241.05 120.24 293.05 599.57 293.05 560.81 241.05 158.11 241.05"/>
    </g>
    <g class="cls-119">
      <polygon class="cls-43" points="244.32 124.02 206.45 176.02 513.36 176.02 474.6 124.02 244.32 124.02"/>
    </g>
    <g class="cls-44">
      <path class="cls-6" d="M25.53.91h33.22c6.79,0,10.87,0,13.58.94,4.33,1.58,7.75,4.99,9.32,9.32.62,1.71.94,3.52.94,5.34s-.32,3.63-.94,5.34c-1.58,4.33-4.99,7.75-9.32,9.32-2.72.94-6.79.94-13.58.94H25.53c-6.79,0-10.87,0-13.58-.94-4.33-1.58-7.75-4.99-9.32-9.32-.62-1.71-.94-3.52-.94-5.34s.32-3.63.94-5.34C4.2,6.84,7.61,3.43,11.94,1.85c2.72-.94,6.79-.94,13.58-.94Z"/>
    </g>
    <g class="cls-109">
      <text class="cls-15" transform="translate(28.34 20.23)"><tspan x="0" y="0">Laws</tspan></text>
    </g>
    <g class="cls-17">
      <path class="cls-145" d="M25.53,39.91h33.22c6.79,0,10.87,0,13.58.94,4.33,1.58,7.75,4.99,9.32,9.32.62,1.71.94,3.52.94,5.34s-.32,3.63-.94,5.34c-1.58,4.33-4.99,7.75-9.32,9.32-2.72.94-6.79.94-13.58.94H25.53c-6.79,0-10.87,0-13.58-.94-4.33-1.58-7.75-4.99-9.32-9.32-.62-1.71-.94-3.52-.94-5.34s.32-3.63.94-5.34c1.58-4.33,4.99-7.75,9.32-9.32,2.72-.94,6.79-.94,13.58-.94Z"/>
    </g>
    <g class="cls-18">
      <text class="cls-15" transform="translate(17.63 59.1)"><tspan x="0" y="0">Standards</tspan></text>
    </g>
    <g class="cls-111">
      <path class="cls-137" d="M25.53,78.91h33.22c6.79,0,10.87,0,13.58.94,4.33,1.58,7.75,4.99,9.32,9.32.62,1.71.94,3.52.94,5.34s-.32,3.63-.94,5.34c-1.58,4.33-4.99,7.75-9.32,9.32-2.72.94-6.79.94-13.58.94H25.53c-6.79,0-10.87,0-13.58-.94-4.33-1.58-7.75-4.99-9.32-9.32-.62-1.71-.94-3.52-.94-5.34s.32-3.63.94-5.34c1.58-4.33,4.99-7.75,9.32-9.32,2.72-.94,6.79-.94,13.58-.94Z"/>
    </g>
    <g class="cls-63">
      <text class="cls-15" transform="translate(18.83 98.1)"><tspan x="0" y="0">Principles</tspan></text>
    </g>
    <g class="cls-65">
      <path class="cls-122" d="M25.53,117.91h33.22c6.79,0,10.87,0,13.58.94,4.33,1.58,7.75,4.99,9.32,9.32.62,1.71.94,3.52.94,5.34s-.32,3.63-.94,5.34c-1.58,4.33-4.99,7.75-9.32,9.32-2.72.94-6.79.94-13.58.94H25.53c-6.79,0-10.87,0-13.58-.94-4.33-1.58-7.75-4.99-9.32-9.32-.62-1.71-.94-3.52-.94-5.34s.32-3.63.94-5.34c1.58-4.33,4.99-7.75,9.32-9.32,2.72-.94,6.79-.94,13.58-.94Z"/>
    </g>
    <g class="cls-80">
      <text class="cls-7" transform="translate(19.05 137.1)"><tspan x="0" y="0">Guidance</tspan></text>
    </g>
    <g class="cls-123">
      <rect class="cls-46" x="99.91" y="300.23" width="520" height="52"/>
    </g>
    <g class="cls-171">
      <text class="cls-12" transform="translate(219.07 321.44)"><tspan x="0" y="0">Wider legislation (e.g. Human Rights Act, NZBORA)</tspan></text>
      <text class="cls-12" transform="translate(204.25 341.7)"><tspan x="0" y="0">Establishing legislation (e.g. Social Security Act for MSD)</tspan></text>
    </g>
    <g class="cls-129">
      <text class="cls-14" transform="translate(505.97 151.94)"><tspan x="0" y="0">Algorithms</tspan></text>
    </g>
    <g class="cls-29">
      <text class="cls-14" transform="translate(559.77 201.86)"><tspan x="0" y="0">Information</tspan></text>
      <text class="cls-14" transform="translate(559.77 218.76)"><tspan x="0" y="0">technology</tspan></text>
    </g>
    <g class="cls-159">
      <text class="cls-14" transform="translate(464.95 93.3)"><tspan x="0" y="0">AI systems</tspan></text>
    </g>
    <g class="cls-19">
      <text class="cls-14" transform="translate(588.03 268.97)"><tspan x="0" y="0">Information</tspan></text>
    </g>
    <g class="cls-41">
      <path class="cls-72" d="M656.42.91h51.34c5.94,0,9.5,0,11.88.99,3.43,1.25,6.12,3.95,7.37,7.37.99,2.38.99,5.94.99,11.88v99.34c0,5.94,0,9.5-.99,11.88-1.25,3.43-3.95,6.12-7.37,7.37-2.38.99-5.94.99-11.88.99h-51.34c-5.94,0-9.5,0-11.88-.99-3.43-1.25-6.12-3.95-7.37-7.37-.99-2.38-.99-5.94-.99-11.88V21.15c0-5.94,0-9.5.99-11.88,1.25-3.43,3.95-6.12,7.37-7.37,2.38-.99,5.94-.99,11.88-.99Z"/>
      <path class="cls-37" d="M656.42.91h51.34c5.94,0,9.5,0,11.88.99,3.43,1.25,6.12,3.95,7.37,7.37.99,2.38.99,5.94.99,11.88v99.34c0,5.94,0,9.5-.99,11.88-1.25,3.43-3.95,6.12-7.37,7.37-2.38.99-5.94.99-11.88.99h-51.34c-5.94,0-9.5,0-11.88-.99-3.43-1.25-6.12-3.95-7.37-7.37-.99-2.38-.99-5.94-.99-11.88V21.15c0-5.94,0-9.5.99-11.88,1.25-3.43,3.95-6.12,7.37-7.37,2.38-.99,5.94-.99,11.88-.99Z"/>
    </g>
    <g class="cls-134">
      <text class="cls-15" transform="translate(646.73 21.92)"><tspan x="0" y="0">Maintained by:</tspan></text>
    </g>
    <g class="cls-110">
      <path class="cls-102" d="M669.46,69.33h25.25c5.66,0,9.06,0,11.32.78,3.61,1.31,6.46,4.16,7.77,7.77.52,1.42.78,2.93.78,4.45s-.27,3.02-.78,4.45c-1.31,3.61-4.16,6.46-7.77,7.77-2.26.78-5.66.78-11.32.78h-25.25c-5.66,0-9.06,0-11.32-.78-3.61-1.31-6.46-4.16-7.77-7.77-.52-1.42-.78-2.93-.78-4.45s.27-3.02.78-4.45c1.31-3.61,4.16-6.46,7.77-7.77,2.26-.78,5.66-.78,11.32-.78Z"/>
      <path class="cls-33" d="M669.46,69.33h25.25c5.66,0,9.06,0,11.32.78,3.61,1.31,6.46,4.16,7.77,7.77.52,1.43.78,2.93.78,4.45s-.27,3.02-.78,4.45c-1.31,3.61-4.16,6.46-7.77,7.77-2.26.78-5.66.78-11.32.78h-25.25c-5.66,0-9.06,0-11.32-.78-3.61-1.31-6.46-4.16-7.77-7.77-.52-1.43-.78-2.93-.78-4.45s.27-3.02.78-4.45c1.31-3.61,4.16-6.46,7.77-7.77,2.26-.78,5.66-.78,11.32-.78Z"/>
    </g>
    <g class="cls-11">
      <text class="cls-15" transform="translate(667.44 85.94)"><tspan x="0" y="0">GCISO</tspan></text>
    </g>
    <g class="cls-48">
      <path class="cls-102" d="M669.46,35.85h25.25c5.66,0,9.06,0,11.32.78,3.61,1.31,6.46,4.16,7.77,7.77.52,1.42.78,2.93.78,4.45s-.27,3.02-.78,4.45c-1.31,3.61-4.16,6.46-7.77,7.77-2.26.78-5.66.78-11.32.78h-25.25c-5.66,0-9.06,0-11.32-.78-3.61-1.31-6.46-4.16-7.77-7.77-.52-1.42-.78-2.93-.78-4.45s.27-3.02.78-4.45c1.31-3.61,4.16-6.46,7.77-7.77,2.26-.78,5.66-.78,11.32-.78Z"/>
      <path class="cls-37" d="M669.46,35.85h25.25c5.66,0,9.06,0,11.32.78,3.61,1.31,6.46,4.16,7.77,7.77.52,1.43.78,2.93.78,4.45s-.27,3.02-.78,4.45c-1.31,3.61-4.16,6.46-7.77,7.77-2.26.78-5.66.78-11.32.78h-25.25c-5.66,0-9.06,0-11.32-.78-3.61-1.31-6.46-4.16-7.77-7.77-.52-1.43-.78-2.93-.78-4.45s.27-3.02.78-4.45c1.31-3.61,4.16-6.46,7.77-7.77,2.26-.78,5.66-.78,11.32-.78Z"/>
    </g>
    <g class="cls-50">
      <text class="cls-15" transform="translate(668.76 52.47)"><tspan x="0" y="0">GCDS</tspan></text>
    </g>
    <g class="cls-177">
      <path class="cls-102" d="M669.46,102.8h25.25c5.66,0,9.06,0,11.32.78,3.61,1.31,6.46,4.16,7.77,7.77.52,1.43.78,2.93.78,4.45s-.27,3.02-.78,4.45c-1.31,3.61-4.16,6.46-7.77,7.77-2.26.78-5.66.78-11.32.78h-25.25c-5.66,0-9.06,0-11.32-.78-3.61-1.31-6.46-4.16-7.77-7.77-.52-1.43-.78-2.93-.78-4.45s.27-3.02.78-4.45c1.31-3.61,4.16-6.46,7.77-7.77,2.26-.78,5.66-.78,11.32-.78Z"/>
      <path class="cls-39" d="M669.46,102.8h25.25c5.66,0,9.06,0,11.32.78,3.61,1.31,6.46,4.16,7.77,7.77.52,1.43.78,2.93.78,4.45s-.27,3.02-.78,4.45c-1.31,3.61-4.16,6.46-7.77,7.77-2.26.78-5.66.78-11.32.78h-25.25c-5.66,0-9.06,0-11.32-.78-3.61-1.31-6.46-4.16-7.77-7.77-.52-1.43-.78-2.93-.78-4.45s.27-3.02.78-4.45c1.31-3.61,4.16-6.46,7.77-7.77,2.26-.78,5.66-.78,11.32-.78Z"/>
    </g>
    <g class="cls-74">
      <text class="cls-15" transform="translate(668.09 119.42)"><tspan x="0" y="0">GCDO</tspan></text>
    </g>
    <g class="cls-121">
      <polygon class="cls-16" points="359.91 3.01 363.12 12.89 373.51 12.89 365.1 19 368.31 28.88 359.91 22.78 351.5 28.88 354.71 19 346.31 12.89 356.7 12.89 359.91 3.01"/>
      <polygon class="cls-38" points="359.91 3.01 363.12 12.89 373.51 12.89 365.1 19 368.31 28.88 359.91 22.78 351.5 28.88 354.71 19 346.31 12.89 356.7 12.89 359.91 3.01"/>
    </g>
    <g class="cls-75">
      <text class="cls-14" transform="translate(301.02 50.2)"><tspan x="0" y="0">Benefits realisation</tspan></text>
    </g>
    <g class="cls-94">
      <circle class="cls-6" cx="176.02" cy="267.58" r="19.5"/>
    </g>
    <g class="cls-163">
      <text class="cls-15" transform="translate(168.03 271.26)"><tspan x="0" y="0">OIA</tspan></text>
    </g>
    <g class="cls-132">
      <circle class="cls-122" cx="380.14" cy="91.39" r="18.2"/>
      <circle class="cls-39" cx="380.14" cy="91.39" r="18.2"/>
    </g>
    <g class="cls-22">
      <text class="cls-7" transform="translate(369.05 95.14)"><tspan x="0" y="0">RAIG</tspan></text>
    </g>
    <g class="cls-142">
      <circle class="cls-145" cx="224.78" cy="209.2" r="19.5"/>
      <circle class="cls-39" cx="224.78" cy="209.2" r="19.5"/>
    </g>
    <g class="cls-30">
      <text class="cls-15" transform="translate(214.1 212.8)"><tspan x="0" y="0">GWS</tspan></text>
    </g>
    <g class="cls-5">
      <path class="cls-145" d="M367.92,196.02c3.33,0,8.27.29,10.29,1.21,4.95,1.8,8.85,5.7,10.65,10.65,1.11,2.66,1.21,8.09,1.21,14.14s-.1,11.48-1.21,14.14c-1.8,4.95-5.7,8.85-10.65,10.65-2.03.92-6.96,1.21-10.29,1.21s-8.27-.29-10.29-1.21c-4.95-1.8-8.85-5.7-10.65-10.65-1.11-2.66-1.21-8.09-1.21-14.14s.1-11.48,1.21-14.14c1.8-4.95,5.7-8.85,10.65-10.65,2.03-.92,6.96-1.21,10.29-1.21Z"/>
      <path class="cls-33" d="M367.92,196.02c3.33,0,8.27.29,10.29,1.21,4.95,1.8,8.85,5.7,10.65,10.65,1.11,2.66,1.21,8.09,1.21,14.14s-.1,11.48-1.21,14.14c-1.8,4.95-5.7,8.85-10.65,10.65-2.03.92-6.96,1.21-10.29,1.21s-8.27-.29-10.29-1.21c-4.95-1.8-8.85-5.7-10.65-10.65-1.11-2.66-1.21-8.09-1.21-14.14s.1-11.48,1.21-14.14c1.8-4.95,5.7-8.85,10.65-10.65,2.03-.92,6.96-1.21,10.29-1.21Z"/>
    </g>
    <g class="cls-90">
      <text class="cls-15" transform="translate(358.97 238.57)"><tspan x="0" y="0">PSR</tspan></text>
    </g>
    <g class="cls-88">
      <circle class="cls-145" cx="298.33" cy="91.39" r="19.5"/>
    </g>
    <g class="cls-169">
      <text class="cls-15" transform="translate(290.74 90.24)"><tspan x="0" y="0">ISO </tspan></text>
      <text class="cls-15" transform="translate(287.17 100.04)"><tspan x="0" y="0">42k+</tspan></text>
    </g>
    <g class="cls-10">
      <g class="cls-154">
        <line class="cls-36" x1="379.98" y1="215.44" x2="314.09" y2="208.92"/>
      </g>
    </g>
    <g class="cls-108">
      <path class="cls-122" d="M367.92,201.24c4.02,0,7.84.06,9.65.78,3.61,1.31,6.46,4.16,7.77,7.77.52,1.43.78,2.93.78,4.45s-.27,3.02-.78,4.45c-1.31,3.61-4.16,6.46-7.77,7.77-1.81.72-5.63.78-9.65.78s-7.84-.06-9.65-.78c-3.61-1.31-6.46-4.16-7.77-7.77-.52-1.43-.78-2.93-.78-4.45s.27-3.02.78-4.45c1.31-3.61,4.16-6.46,7.77-7.77,1.81-.72,5.63-.78,9.65-.78Z"/>
    </g>
    <g class="cls-114">
      <text class="cls-7" transform="translate(360.04 217.94)"><tspan x="0" y="0">ISM</tspan></text>
    </g>
    <g class="cls-66">
      <path class="cls-145" d="M327.81,195.13c7.62,7.62,7.62,19.96,0,27.58-7.62,7.62-19.96,7.62-27.58,0-7.62-7.62-7.62-19.96,0-27.58,7.62-7.62,19.96-7.62,27.58,0Z"/>
    </g>
    <g class="cls-71">
      <text class="cls-15" transform="translate(298.87 212.63)"><tspan x="0" y="0">ISO 27k</tspan></text>
    </g>
    <g class="cls-185">
      <circle class="cls-6" cx="408.09" cy="179.22" r="19.5"/>
    </g>
    <g class="cls-105">
      <text class="cls-15" transform="translate(399.06 182.85)"><tspan x="0" y="0">AES</tspan></text>
    </g>
    <g class="cls-107">
      <path class="cls-137" d="M351.15,128.23h2.78c9.6,0,15.36,0,19.2,1.33,6.13,2.23,10.95,7.05,13.18,13.18.88,2.42,1.33,4.97,1.33,7.54s-.45,5.13-1.33,7.54c-2.23,6.13-7.06,10.95-13.18,13.18-3.84,1.33-9.6,1.33-19.2,1.33h-2.78c-9.6,0-15.36,0-19.2-1.33-6.13-2.23-10.95-7.06-13.18-13.18-.88-2.42-1.33-4.97-1.33-7.54s.45-5.13,1.33-7.54c2.23-6.13,7.05-10.95,13.18-13.18,3.84-1.33,9.6-1.33,19.2-1.33Z"/>
      <path class="cls-37" d="M351.15,128.23h2.78c9.6,0,15.36,0,19.2,1.33,6.13,2.23,10.95,7.06,13.18,13.18.88,2.42,1.33,4.97,1.33,7.54s-.45,5.13-1.33,7.54c-2.23,6.13-7.06,10.95-13.18,13.18-3.84,1.33-9.6,1.33-19.2,1.33h-2.78c-9.6,0-15.36,0-19.2-1.33-6.13-2.23-10.95-7.06-13.18-13.18-.88-2.42-1.33-4.97-1.33-7.54s.45-5.13,1.33-7.54c2.23-6.13,7.06-10.95,13.18-13.18,3.84-1.33,9.6-1.33,19.2-1.33Z"/>
    </g>
    <g class="cls-42">
      <text class="cls-15" transform="translate(324.57 154.03)"><tspan x="0" y="0">AC</tspan></text>
    </g>
    <g class="cls-91">
      <circle class="cls-122" cx="365.48" cy="150.29" r="18.2"/>
      <circle class="cls-39" cx="365.48" cy="150.29" r="18.2"/>
    </g>
    <g class="cls-168">
      <text class="cls-7" transform="translate(350.72 154)"><tspan x="0" y="0">AIA TK</tspan></text>
    </g>
    <g class="cls-126">
      <circle class="cls-122" cx="421.05" cy="91.39" r="19.5"/>
    </g>
    <g class="cls-3">
      <text class="cls-7" transform="translate(409.19 95.19)"><tspan x="0" y="0">MAIG</tspan></text>
    </g>
    <g class="cls-113">
      <circle class="cls-122" cx="398.31" cy="267.58" r="19.5"/>
      <circle class="cls-37" cx="398.31" cy="267.58" r="19.5"/>
    </g>
    <g class="cls-152">
      <text class="cls-7" transform="translate(385.98 271.22)"><tspan x="0" y="0">DPUP</tspan></text>
    </g>
    <g class="cls-59">
      <circle class="cls-137" cx="445.51" cy="267.58" r="19.5"/>
      <circle class="cls-37" cx="445.51" cy="267.58" r="19.5"/>
    </g>
    <g class="cls-143">
      <text class="cls-15" transform="translate(436.23 271.25)"><tspan x="0" y="0">NTP</tspan></text>
    </g>
    <g class="cls-98">
      <circle class="cls-122" cx="536.97" cy="267.58" r="19.5"/>
    </g>
    <g class="cls-82">
      <text class="cls-7" transform="translate(526.16 271.31)"><tspan x="0" y="0">MDG</tspan></text>
    </g>
    <g class="cls-170">
      <line class="cls-36" x1="508.3" y1="267.58" x2="518.43" y2="267.58"/>
    </g>
    <g class="cls-70">
      <circle class="cls-137" cx="488.8" cy="267.58" r="19.5"/>
    </g>
    <g class="cls-78">
      <text class="cls-15" transform="translate(473.69 271.31)"><tspan x="0" y="0">MDSov</tspan></text>
    </g>
    <g class="cls-31">
      <line class="cls-36" x1="239.91" y1="267.58" x2="250.04" y2="267.58"/>
    </g>
    <g class="cls-186">
      <circle class="cls-6" cx="220.18" cy="267.58" r="19.5"/>
    </g>
    <g class="cls-176">
      <text class="cls-15" transform="translate(210.86 271.21)"><tspan x="0" y="0">PRA</tspan></text>
    </g>
    <g class="cls-73">
      <circle class="cls-145" cx="266.6" cy="267.58" r="19.5"/>
    </g>
    <g class="cls-184">
      <text class="cls-15" transform="translate(256.07 271.25)"><tspan x="0" y="0">IRMS</tspan></text>
    </g>
    <g class="cls-60">
      <line class="cls-36" x1="327.43" y1="267.84" x2="337.56" y2="267.84"/>
    </g>
    <g class="cls-115">
      <circle class="cls-6" cx="310.09" cy="267.58" r="19.5"/>
    </g>
    <g class="cls-182">
      <text class="cls-15" transform="translate(295.67 271.18)"><tspan x="0" y="0">Privacy</tspan></text>
    </g>
    <g class="cls-187">
      <circle class="cls-122" cx="353.08" cy="267.58" r="18.2"/>
    </g>
    <g class="cls-64">
      <text class="cls-7" transform="translate(338.75 271.37)"><tspan x="0" y="0">PIA TK</tspan></text>
    </g>
    <g class="cls-45">
      <path class="cls-36" d="M437.07,102.63c40.02,31.3,71.36,80.1,94,146.38"/>
    </g>
    <g class="cls-140">
      <circle class="cls-145" cx="269.85" cy="209.57" r="19.5"/>
      <circle class="cls-39" cx="269.85" cy="209.57" r="19.5"/>
    </g>
    <g class="cls-151">
      <text class="cls-15" transform="translate(257.33 213.31)"><tspan x="0" y="0">DSDS</tspan></text>
    </g>
    <g class="cls-118">
      <circle class="cls-122" cx="445.15" cy="209.57" r="19.5"/>
      <circle class="cls-39" cx="445.15" cy="209.57" r="19.5"/>
    </g>
    <g class="cls-26">
      <text class="cls-7" transform="translate(432.42 213.32)"><tspan x="0" y="0">CRDT</tspan></text>
    </g>
    <g class="cls-2">
      <path class="cls-36" d="M464.04,162.81c23.16,22.16,32.53,50.7,28.13,85.6"/>
    </g>
    <g class="cls-133">
      <circle class="cls-137" cx="449.14" cy="150.55" r="19.5"/>
    </g>
    <g class="cls-138">
      <text class="cls-15" transform="translate(434.1 154.27)"><tspan x="0" y="0">MASov</tspan></text>
    </g>
    <g class="cls-25">
      <circle class="cls-137" cx="339.24" cy="91.39" r="19.5"/>
      <circle class="cls-39" cx="339.24" cy="91.39" r="19.5"/>
    </g>
    <g class="cls-21">
      <text class="cls-13" transform="translate(325.73 95.19)"><tspan x="0" y="0">PSAIF</tspan></text>
    </g>
    <g class="cls-155">
      <path class="cls-36" d="M292.05,110.81c-5.93,27.67-2.13,54.98,11.4,81.94"/>
    </g>
    <g class="cls-57">
      <g class="cls-183">
        <polyline class="cls-40" points="716.32 284.72 613.29 142.91 612.15 141.33"/>
        <polygon class="cls-68" points="619.23 138.6 604.68 131.05 607.36 147.22 619.23 138.6"/>
      </g>
    </g>
    <g class="cls-141">
      <path class="cls-35" d="M199.98,91.69c-62.25,23.21-95.16,84.97-98.73,185.27l-.04,1.95"/>
      <polygon class="cls-68" points="93.92 276.81 100.94 291.62 108.58 277.12 93.92 276.81"/>
    </g>
    <g class="cls-86">
      <text class="cls-69" transform="translate(97.64 53.56)"><tspan x="0" y="0">Each level must</tspan></text>
      <text class="cls-69" transform="translate(97.64 69.16)"><tspan x="0" y="0">have regard to all</tspan></text>
      <text class="cls-69" transform="translate(97.64 84.76)"><tspan x="0" y="0">layers below it</tspan></text>
    </g>
    <g class="cls-174">
      <circle class="cls-6" cx="176.02" cy="325.31" r="19.5"/>
    </g>
    <g class="cls-181">
      <text class="cls-15" transform="translate(165.67 328.98)"><tspan x="0" y="0">Omb</tspan></text>
    </g>
    <g class="cls-83">
      <path class="cls-36" d="M164.45,282.98c-4.11,8.68-3.98,17.56.39,26.64"/>
    </g>
    <g class="cls-106">
      <text class="cls-69" transform="translate(548.03 74.88)"><tspan x="0" y="0">Higher levels</tspan></text>
      <text class="cls-69" transform="translate(548.03 90.48)"><tspan x="0" y="0">increase in</tspan></text>
      <text class="cls-69" transform="translate(548.03 106.08)"><tspan x="0" y="0">technical</tspan></text>
      <text class="cls-69" transform="translate(548.03 121.68)"><tspan x="0" y="0">specialisation</tspan></text>
    </g>
  </g>
</svg>