<?xml version="1.0" encoding="UTF-8"?>
<svg id="Layer_2" data-name="Layer 2" xmlns="http://www.w3.org/2000/svg" xmlns:xlink="http://www.w3.org/1999/xlink" viewBox="0 0 712.55 459.59">
  <defs>
    <style>
      @import url('https://fonts.googleapis.com/css2?family=DM+Sans:ital,opsz,wght@0,9..40,100..900;1,9..40,100..900&amp;display=swap');
      .cls-1 {
        fill: #009664;
      }

      .cls-1, .cls-2, .cls-3, .cls-4 {
        font-family: DMSans-Regular, 'DM Sans';
        font-size: 16.83px;
      }

      .cls-5 {
        letter-spacing: 0em;
      }

      .cls-6 {
        clip-path: url(#clippath-6);
      }

      .cls-7 {
        clip-path: url(#clippath-7);
      }

      .cls-8 {
        stroke: #212686;
      }

      .cls-8, .cls-9, .cls-10, .cls-11, .cls-12, .cls-13 {
        fill: none;
      }

      .cls-8, .cls-11, .cls-12, .cls-13 {
        stroke-width: .42px;
      }

      .cls-14 {
        letter-spacing: 0em;
      }

      .cls-15 {
        letter-spacing: 0em;
      }

      .cls-16 {
        clip-path: url(#clippath-15);
      }

      .cls-17 {
        clip-path: url(#clippath-4);
      }

      .cls-18 {
        opacity: .63;
      }

      .cls-18, .cls-19 {
        fill: #49b8d0;
      }

      .cls-20 {
        clip-path: url(#clippath-9);
      }

      .cls-21 {
        clip-path: url(#clippath-10);
      }

      .cls-9 {
        stroke: #fff;
        stroke-width: 1.2px;
      }

      .cls-22 {
        fill: #fff;
      }

      .cls-23 {
        fill: #e9e9f4;
        opacity: .84;
      }

      .cls-24 {
        letter-spacing: -.04em;
      }

      .cls-25 {
        letter-spacing: 0em;
      }

      .cls-26 {
        clip-path: url(#clippath-11);
      }

      .cls-27 {
        fill: #b7ffe7;
        opacity: .66;
      }

      .cls-28 {
        letter-spacing: 0em;
      }

      .cls-29 {
        clip-path: url(#clippath-1);
      }

      .cls-30 {
        letter-spacing: 0em;
      }

      .cls-31 {
        clip-path: url(#clippath-5);
      }

      .cls-32 {
        letter-spacing: -.01em;
      }

      .cls-33 {
        clip-path: url(#clippath-8);
      }

      .cls-34 {
        clip-path: url(#clippath-3);
      }

      .cls-35 {
        letter-spacing: 0em;
      }

      .cls-36 {
        clip-path: url(#clippath-12);
      }

      .cls-2 {
        fill: #2f7585;
      }

      .cls-37 {
        clip-path: url(#clippath-14);
      }

      .cls-38 {
        letter-spacing: -.01em;
      }

      .cls-39 {
        letter-spacing: 0em;
      }

      .cls-11 {
        stroke: #006c65;
      }

      .cls-40 {
        letter-spacing: 0em;
      }

      .cls-19 {
        opacity: .46;
      }

      .cls-3 {
        fill: #212686;
      }

      .cls-41 {
        letter-spacing: 0em;
      }

      .cls-42 {
        letter-spacing: 0em;
      }

      .cls-43 {
        letter-spacing: 0em;
      }

      .cls-44 {
        clip-path: url(#clippath-16);
      }

      .cls-45 {
        clip-path: url(#clippath-2);
      }

      .cls-4 {
        fill: #427383;
      }

      .cls-46 {
        clip-path: url(#clippath-13);
      }

      .cls-12 {
        stroke: #970e53;
      }

      .cls-13 {
        stroke: #009664;
      }

      .cls-47 {
        clip-path: url(#clippath);
      }

      .cls-48 {
        letter-spacing: 0em;
      }
    </style>
    <clipPath id="clippath">
      <rect class="cls-10" y="385.35" width="712.07" height="50.8"/>
    </clipPath>
    <clipPath id="clippath-1">
      <rect class="cls-10" x="1.35" y="386.7" width="709.37" height="48.09"/>
    </clipPath>
    <clipPath id="clippath-2">
      <rect class="cls-10" y="47.98" width="712.07" height="86.87"/>
    </clipPath>
    <clipPath id="clippath-3">
      <rect class="cls-10" x="1.35" y="49.33" width="709.37" height="84.16"/>
    </clipPath>
    <clipPath id="clippath-4">
      <rect class="cls-10" y="144.28" width="712.07" height="86.87"/>
    </clipPath>
    <clipPath id="clippath-5">
      <rect class="cls-10" x="1.35" y="145.63" width="709.37" height="84.16"/>
    </clipPath>
    <clipPath id="clippath-6">
      <rect class="cls-10" x=".48" y="204.64" width="712.07" height="74.84"/>
    </clipPath>
    <clipPath id="clippath-7">
      <rect class="cls-10" x="1.83" y="205.99" width="709.37" height="72.14"/>
    </clipPath>
    <clipPath id="clippath-8">
      <rect class="cls-10" y="289.08" width="712.07" height="86.87"/>
    </clipPath>
    <clipPath id="clippath-9">
      <rect class="cls-10" x="1.35" y="290.44" width="709.37" height="84.16"/>
    </clipPath>
    <clipPath id="clippath-10">
      <rect class="cls-10" x="535.13" width="159.01" height="459.59"/>
    </clipPath>
    <clipPath id="clippath-11">
      <rect class="cls-10" x="536.48" y="1.35" width="156.3" height="456.88"/>
    </clipPath>
    <clipPath id="clippath-12">
      <rect class="cls-10" x="199.08" width="159.01" height="459.59"/>
    </clipPath>
    <clipPath id="clippath-13">
      <rect class="cls-10" x="200.44" y="1.35" width="156.3" height="456.88"/>
    </clipPath>
    <clipPath id="clippath-14">
      <rect class="cls-10" x="367.37" width="159.01" height="459.59"/>
    </clipPath>
    <clipPath id="clippath-15">
      <rect class="cls-10" x="368.72" y="1.35" width="156.3" height="456.88"/>
    </clipPath>
    <clipPath id="clippath-16">
      <rect class="cls-10" x="367.37" y="289.68" width="158.48" height="85.67"/>
    </clipPath>
  </defs>
  <g id="Layer_1-2" data-name="Layer 1">
    <g class="cls-47">
      <path class="cls-23" d="M13.38,386.7h685.3c3.53,0,5.65,0,7.06.59,2.04.74,3.64,2.34,4.38,4.38.59,1.41.59,3.53.59,7.06v24.03c0,3.53,0,5.65-.59,7.06-.74,2.04-2.34,3.64-4.38,4.38-1.41.59-3.53.59-7.06.59H13.38c-3.53,0-5.65,0-7.06-.59-2.04-.74-3.64-2.34-4.38-4.38-.59-1.41-.59-3.53-.59-7.06v-24.03c0-3.53,0-5.65.59-7.06.74-2.04,2.34-3.64,4.38-4.38,1.41-.59,3.53-.59,7.06-.59Z"/>
      <path class="cls-8" d="M13.38,386.7h685.3c3.53,0,5.65,0,7.06.59,2.04.74,3.64,2.34,4.38,4.38.59,1.41.59,3.53.59,7.06v24.03c0,3.53,0,5.65-.59,7.06-.74,2.04-2.34,3.64-4.38,4.38-1.41.59-3.53.59-7.06.59H13.38c-3.53,0-5.65,0-7.06-.59-2.04-.74-3.64-2.34-4.38-4.38-.59-1.41-.59-3.53-.59-7.06v-24.03c0-3.53,0-5.65.59-7.06.74-2.04,2.34-3.64,4.38-4.38,1.41-.59,3.53-.59,7.06-.59Z"/>
    </g>
    <g class="cls-29">
      <text class="cls-3" transform="translate(11.33 412.89)"><tspan x="0" y="0">Goal-driven optimisation</tspan></text>
    </g>
    <g class="cls-45">
      <path class="cls-23" d="M19.1,49.33h673.86c5.21,0,8.33,0,10.42.87,3,1.09,5.37,3.46,6.46,6.46.87,2.08.87,5.21.87,10.42v48.66c0,5.21,0,8.33-.87,10.42-1.09,3-3.46,5.37-6.46,6.46-2.08.87-5.21.87-10.42.87H19.1c-5.21,0-8.33,0-10.42-.87-3-1.09-5.37-3.46-6.46-6.46-.87-2.08-.87-5.21-.87-10.42v-48.66c0-5.21,0-8.33.87-10.42,1.09-3,3.46-5.37,6.46-6.46,2.08-.87,5.21-.87,10.42-.87Z"/>
      <path class="cls-8" d="M19.1,49.33h673.86c5.21,0,8.33,0,10.42.87,3,1.09,5.37,3.46,6.46,6.46.87,2.08.87,5.21.87,10.42v48.66c0,5.21,0,8.33-.87,10.42-1.09,3-3.46,5.37-6.46,6.46-2.08.87-5.21.87-10.42.87H19.1c-5.21,0-8.33,0-10.42-.87-3-1.09-5.37-3.46-6.46-6.46-.87-2.08-.87-5.21-.87-10.42v-48.66c0-5.21,0-8.33.87-10.42,1.09-3,3.46-5.37,6.46-6.46,2.08-.87,5.21-.87,10.42-.87Z"/>
    </g>
    <g class="cls-34">
      <text class="cls-3" transform="translate(11.82 75.52)"><tspan x="0" y="0">Hand crafted algorithms</tspan></text>
    </g>
    <g class="cls-17">
      <path class="cls-19" d="M19.01,145.63h674.05c5.18,0,8.29,0,10.36.87,2.99,1.09,5.34,3.44,6.43,6.43.87,2.07.87,5.18.87,10.36v48.85c0,5.18,0,8.29-.87,10.36-1.09,2.99-3.44,5.34-6.43,6.43-2.07.87-5.18.87-10.36.87H19.01c-5.18,0-8.29,0-10.36-.87-2.99-1.09-5.34-3.44-6.43-6.43-.87-2.07-.87-5.18-.87-10.36v-48.85c0-5.18,0-8.29.87-10.36,1.09-2.99,3.44-5.34,6.43-6.43,2.07-.87,5.18-.87,10.36-.87Z"/>
      <path class="cls-11" d="M19.01,145.63h674.05c5.18,0,8.29,0,10.36.87,2.99,1.09,5.34,3.44,6.43,6.43.87,2.07.87,5.18.87,10.36v48.85c0,5.18,0,8.29-.87,10.36-1.09,2.99-3.44,5.34-6.43,6.43-2.07.87-5.18.87-10.36.87H19.01c-5.18,0-8.29,0-10.36-.87-2.99-1.09-5.34-3.44-6.43-6.43-.87-2.07-.87-5.18-.87-10.36v-48.85c0-5.18,0-8.29.87-10.36,1.09-2.99,3.44-5.34,6.43-6.43,2.07-.87,5.18-.87,10.36-.87Z"/>
    </g>
    <g class="cls-31">
      <text class="cls-2" transform="translate(11.82 171.82)"><tspan x="0" y="0">Supervised learning</tspan></text>
    </g>
    <g class="cls-6">
      <path class="cls-19" d="M19.49,205.99h674.05c5.18,0,8.29,0,10.36.87,2.99,1.09,5.34,3.44,6.43,6.43.87,2.07.87,5.18.87,10.36v36.82c0,5.18,0,8.29-.87,10.36-1.09,2.99-3.44,5.34-6.43,6.43-2.07.87-5.18.87-10.36.87H19.49c-5.18,0-8.29,0-10.36-.87-2.99-1.09-5.34-3.44-6.43-6.43-.87-2.07-.87-5.18-.87-10.36v-36.82c0-5.18,0-8.29.87-10.36,1.09-2.99,3.44-5.34,6.43-6.43,2.07-.87,5.18-.87,10.36-.87Z"/>
      <path class="cls-11" d="M19.49,205.99h674.05c5.18,0,8.29,0,10.36.87,2.99,1.09,5.34,3.44,6.43,6.43.87,2.07.87,5.18.87,10.36v36.82c0,5.18,0,8.29-.87,10.36-1.09,2.99-3.44,5.34-6.43,6.43-2.07.87-5.18.87-10.36.87H19.49c-5.18,0-8.29,0-10.36-.87-2.99-1.09-5.34-3.44-6.43-6.43-.87-2.07-.87-5.18-.87-10.36v-36.82c0-5.18,0-8.29.87-10.36,1.09-2.99,3.44-5.34,6.43-6.43,2.07-.87,5.18-.87,10.36-.87Z"/>
    </g>
    <g class="cls-7">
      <text class="cls-2" transform="translate(12.14 263.44)"><tspan x="0" y="0">Unsupervised learning</tspan></text>
    </g>
    <g class="cls-33">
      <path class="cls-18" d="M18.85,290.44h674.37c5.13,0,8.22,0,10.27.86,2.96,1.08,5.29,3.41,6.37,6.37.86,2.05.86,5.14.86,10.27v49.17c0,5.13,0,8.22-.86,10.27-1.08,2.96-3.41,5.29-6.37,6.37-2.05.86-5.13.86-10.27.86H18.85c-5.13,0-8.22,0-10.27-.86-2.96-1.08-5.29-3.41-6.37-6.37-.86-2.05-.86-5.13-.86-10.27v-49.17c0-5.13,0-8.22.86-10.27,1.08-2.96,3.41-5.29,6.37-6.37,2.05-.86,5.13-.86,10.27-.86Z"/>
      <path class="cls-12" d="M18.85,290.44h674.37c5.13,0,8.22,0,10.27.86,2.96,1.08,5.29,3.41,6.37,6.37.86,2.05.86,5.13.86,10.27v49.17c0,5.13,0,8.22-.86,10.27-1.08,2.96-3.41,5.29-6.37,6.37-2.05.86-5.13.86-10.27.86H18.85c-5.13,0-8.22,0-10.27-.86-2.96-1.08-5.29-3.41-6.37-6.37-.86-2.05-.86-5.13-.86-10.27v-49.17c0-5.13,0-8.22.86-10.27,1.08-2.96,3.41-5.29,6.37-6.37,2.05-.86,5.13-.86,10.27-.86Z"/>
    </g>
    <g class="cls-20">
      <text class="cls-4" transform="translate(11.78 316.62)"><tspan x="0" y="0">Generative AI</tspan></text>
    </g>
    <g class="cls-21">
      <path class="cls-27" d="M547.62,1.35h134.03c3.27,0,5.23,0,6.54.55,1.88.69,3.37,2.17,4.05,4.05.55,1.31.55,3.27.55,6.54v434.61c0,3.27,0,5.23-.55,6.54-.69,1.88-2.17,3.37-4.05,4.05-1.31.55-3.27.55-6.54.55h-134.03c-3.27,0-5.23,0-6.54-.55-1.88-.69-3.37-2.17-4.05-4.05-.55-1.31-.55-3.27-.55-6.54V12.49c0-3.27,0-5.23.55-6.54.69-1.88,2.17-3.37,4.05-4.05,1.31-.55,3.27-.55,6.54-.55Z"/>
      <path class="cls-13" d="M547.62,1.35h134.03c3.27,0,5.23,0,6.54.55,1.88.69,3.37,2.17,4.05,4.05.55,1.31.55,3.27.55,6.54v434.61c0,3.27,0,5.23-.55,6.54-.69,1.88-2.17,3.37-4.05,4.05-1.31.55-3.27.55-6.54.55h-134.03c-3.27,0-5.23,0-6.54-.55-1.88-.69-3.37-2.17-4.05-4.05-.55-1.31-.55-3.27-.55-6.54V12.49c0-3.27,0-5.23.55-6.54.69-1.88,2.17-3.37,4.05-4.05,1.31-.55,3.27-.55,6.54-.55Z"/>
    </g>
    <g class="cls-26">
      <text class="cls-1" transform="translate(578.86 29.44)"><tspan x="0" y="0">Research</tspan></text>
    </g>
    <g class="cls-36">
      <path class="cls-27" d="M211.57,1.35h134.03c3.27,0,5.23,0,6.54.55,1.88.69,3.37,2.17,4.05,4.05.55,1.31.55,3.27.55,6.54v434.61c0,3.27,0,5.23-.55,6.54-.69,1.88-2.17,3.37-4.05,4.05-1.31.55-3.27.55-6.54.55h-134.03c-3.27,0-5.23,0-6.54-.55-1.88-.69-3.37-2.17-4.05-4.05-.55-1.31-.55-3.27-.55-6.54V12.49c0-3.27,0-5.23.55-6.54.69-1.88,2.17-3.37,4.05-4.05,1.31-.55,3.27-.55,6.54-.55Z"/>
      <path class="cls-13" d="M211.57,1.35h134.03c3.27,0,5.23,0,6.54.55,1.88.69,3.37,2.17,4.05,4.05.55,1.31.55,3.27.55,6.54v434.61c0,3.27,0,5.23-.55,6.54-.69,1.88-2.17,3.37-4.05,4.05-1.31.55-3.27.55-6.54.55h-134.03c-3.27,0-5.23,0-6.54-.55-1.88-.69-3.37-2.17-4.05-4.05-.55-1.31-.55-3.27-.55-6.54V12.49c0-3.27,0-5.23.55-6.54.69-1.88,2.17-3.37,4.05-4.05,1.31-.55,3.27-.55,6.54-.55Z"/>
    </g>
    <g class="cls-46">
      <text class="cls-1" transform="translate(221.11 29.44)"><tspan x="0" y="0">Administration</tspan></text>
    </g>
    <g class="cls-37">
      <path class="cls-27" d="M379.86,1.35h134.03c3.27,0,5.23,0,6.54.55,1.88.69,3.37,2.17,4.05,4.05.55,1.31.55,3.27.55,6.54v434.61c0,3.27,0,5.23-.55,6.54-.69,1.88-2.17,3.37-4.05,4.05-1.31.55-3.27.55-6.54.55h-134.03c-3.27,0-5.23,0-6.54-.55-1.88-.69-3.37-2.17-4.05-4.05-.55-1.31-.55-3.27-.55-6.54V12.49c0-3.27,0-5.23.55-6.54.69-1.88,2.17-3.37,4.05-4.05,1.31-.55,3.27-.55,6.54-.55Z"/>
      <path class="cls-13" d="M379.86,1.35h134.03c3.27,0,5.23,0,6.54.55,1.88.69,3.37,2.17,4.05,4.05.55,1.31.55,3.27.55,6.54v434.61c0,3.27,0,5.23-.55,6.54-.69,1.88-2.17,3.37-4.05,4.05-1.31.55-3.27.55-6.54.55h-134.03c-3.27,0-5.23,0-6.54-.55-1.88-.69-3.37-2.17-4.05-4.05-.55-1.31-.55-3.27-.55-6.54V12.49c0-3.27,0-5.23.55-6.54.69-1.88,2.17-3.37,4.05-4.05,1.31-.55,3.27-.55,6.54-.55Z"/>
    </g>
    <g class="cls-16">
      <text class="cls-1" transform="translate(412.52 29.44)"><tspan x="0" y="0">Frontline</tspan></text>
    </g>
    <g class="cls-44">
      <rect class="cls-22" x="369.18" y="291.49" width="154.87" height="82.06"/>
      <rect class="cls-9" x="369.18" y="291.49" width="154.87" height="82.06"/>
    </g>
  </g>
</svg>